<svg width="106" height="132" viewBox="0 0 106 132" fill="none" xmlns="http://www.w3.org/2000/svg">
    <path d="M2.5321 130.176C1.83233 130.176 1.26562 129.516 1.26562 128.703V3.12607C1.26562 2.3142 1.83233 1.6543 2.5321 1.6543H103.466C104.166 1.6543 104.733 2.3142 104.733 3.12607V128.703C104.733 129.515 104.166 130.176 103.466 130.176H2.5321Z" fill="#332B75"/>
    <path d="M103.467 3.12617V128.703H2.53294V3.12617H103.467ZM103.467 0.182617H2.53294C1.1334 0.182617 0 1.49975 0 3.12617V128.703C0 130.33 1.1334 131.647 2.53294 131.647H103.467C104.867 131.647 106 130.33 106 128.703V3.12617C106 1.50108 104.867 0.182617 103.467 0.182617Z" fill="#1D4277"/>
    <path d="M97.8344 9.16699H8.60352V33.6629H97.8344V9.16699Z" fill="#F1F0EF"/>
    <path d="M11.2801 68.6049C10.5409 68.6049 9.94141 67.9503 9.94141 67.1433V51.5544C9.94141 50.7474 10.5397 50.0928 11.2801 50.0928H25.5567C26.2958 50.0928 26.8954 50.7487 26.8954 51.5544V67.1433C26.8954 67.9503 26.2971 68.6049 25.5567 68.6049H11.2801Z" fill="#F8BE2C"/>
    <path d="M25.5562 51.5546V67.1435H11.2796V51.5546H25.5562ZM25.5562 48.6328H11.2796C9.80132 48.6328 8.60352 49.9406 8.60352 51.5546V67.1435C8.60352 68.7589 9.80132 70.0654 11.2796 70.0654H25.5562C27.0345 70.0654 28.2336 68.7576 28.2336 67.1435V51.5546C28.2336 49.9393 27.0345 48.6328 25.5562 48.6328Z" fill="#1D4277"/>
    <path d="M34.4813 68.6049C33.7421 68.6049 33.1426 67.9503 33.1426 67.1433V51.5544C33.1426 50.7474 33.7409 50.0928 34.4813 50.0928H48.7579C49.497 50.0928 50.0966 50.7487 50.0966 51.5544V67.1433C50.0966 67.9503 49.4983 68.6049 48.7579 68.6049H34.4813Z" fill="#FFCC00"/>
    <path d="M48.7567 51.5546V67.1435H34.4801V51.5546H48.7567ZM48.7567 48.6328H34.4801C33.0018 48.6328 31.8027 49.9406 31.8027 51.5546V67.1435C31.8027 68.7589 33.0018 70.0654 34.4801 70.0654H48.7567C50.235 70.0654 51.4328 68.7576 51.4328 67.1435V51.5546C51.4328 49.9393 50.235 48.6328 48.7567 48.6328Z" fill="#1D4277"/>
    <path d="M57.6805 68.6049C56.9413 68.6049 56.3418 67.9503 56.3418 67.1433V51.5544C56.3418 50.7474 56.9401 50.0928 57.6805 50.0928H71.9584C72.6975 50.0928 73.297 50.7487 73.297 51.5544V67.1433C73.297 67.9503 72.6987 68.6049 71.9584 68.6049H57.6805Z" fill="#FFCC00"/>
    <path d="M71.9572 51.5546V67.1435H57.6793V51.5546H71.9572ZM71.9572 48.6328H57.6793C56.201 48.6328 55.002 49.9406 55.002 51.5546V67.1435C55.002 68.7589 56.1998 70.0654 57.6793 70.0654H71.9572C73.4354 70.0654 74.6333 68.7576 74.6333 67.1435V51.5546C74.6333 49.9393 73.4354 48.6328 71.9572 48.6328Z" fill="#1D4277"/>
    <path d="M80.8816 68.6049C80.1425 68.6049 79.543 67.9503 79.543 67.1433V51.5544C79.543 50.7474 80.1425 50.0928 80.8816 50.0928H95.1583C95.8974 50.0928 96.4969 50.7487 96.4969 51.5544V67.1433C96.4969 67.9503 95.8986 68.6049 95.1583 68.6049H80.8816Z" fill="#FFCC00"/>
    <path d="M95.1578 51.5546V67.1435H80.8812V51.5546H95.1578ZM95.1578 48.6328H80.8812C79.4029 48.6328 78.2051 49.9406 78.2051 51.5546V67.1435C78.2051 68.7589 79.4029 70.0654 80.8812 70.0654H95.1578C96.6361 70.0654 97.8339 68.7576 97.8339 67.1435V51.5546C97.8351 49.9393 96.6361 48.6328 95.1578 48.6328Z" fill="#1D4277"/>
    <path d="M11.2814 95.4791C10.5415 95.4791 9.94141 94.8245 9.94141 94.0175V78.4313C9.94141 77.6243 10.5403 76.9697 11.2814 76.9697H25.572C26.3119 76.9697 26.912 77.6257 26.912 78.4313V94.0175C26.912 94.8245 26.3132 95.4791 25.572 95.4791H11.2814Z" fill="#FFCC00"/>
    <path d="M25.5729 78.432V94.0182H11.2822V78.432H25.5729ZM25.5729 75.5088H11.2822C9.8025 75.5088 8.60352 76.8166 8.60352 78.4306V94.0168C8.60352 95.6322 9.8025 96.9386 11.2822 96.9386H25.5729C27.0526 96.9386 28.2528 95.6308 28.2528 94.0168V78.4306C28.2528 76.8166 27.0526 75.5088 25.5729 75.5088Z" fill="#1D4277"/>
    <path d="M34.506 95.4791C33.7661 95.4791 33.166 94.8245 33.166 94.0175V78.4313C33.166 77.6243 33.7649 76.9697 34.506 76.9697H48.7967C49.5365 76.9697 50.1366 77.6257 50.1366 78.4313V94.0175C50.1366 94.8245 49.5378 95.4791 48.7967 95.4791H34.506Z" fill="#FFCC00"/>
    <path d="M48.7968 78.432V94.0182H34.5062V78.432H48.7968ZM48.7968 75.5088H34.5062C33.0264 75.5088 31.8262 76.8166 31.8262 78.4306V94.0168C31.8262 95.6322 33.0264 96.9386 34.5062 96.9386H48.7968C50.2765 96.9386 51.4755 95.6308 51.4755 94.0168V78.4306C51.4755 76.8166 50.2765 75.5088 48.7968 75.5088Z" fill="#1D4277"/>
    <path d="M57.7287 95.4791C56.9888 95.4791 56.3887 94.8245 56.3887 94.0175V78.4313C56.3887 77.6243 56.9876 76.9697 57.7287 76.9697H72.0206C72.7604 76.9697 73.3606 77.6257 73.3606 78.4313V94.0175C73.3606 94.8245 72.7617 95.4791 72.0206 95.4791H57.7287Z" fill="#FFCC00"/>
    <path d="M72.0207 78.432V94.0182H57.7288V78.432H72.0207ZM72.0207 75.5088H57.7288C56.2491 75.5088 55.0488 76.8166 55.0488 78.4306V94.0168C55.0488 95.6322 56.2478 96.9386 57.7288 96.9386H72.0207C73.5004 96.9386 74.6994 95.6308 74.6994 94.0168V78.4306C74.6994 76.8166 73.5004 75.5088 72.0207 75.5088Z" fill="#1D4277"/>
    <path d="M11.2814 122.273C10.5415 122.273 9.94141 121.618 9.94141 120.811V105.222C9.94141 104.415 10.5403 103.761 11.2814 103.761H25.572C26.3119 103.761 26.912 104.415 26.912 105.222V120.811C26.912 121.618 26.3132 122.273 25.572 122.273H11.2814Z" fill="#FFCC00"/>
    <path d="M25.5729 105.222V120.811H11.2822V105.222H25.5729ZM25.5729 102.3H11.2822C9.8025 102.3 8.60352 103.608 8.60352 105.222V120.811C8.60352 122.426 9.8025 123.732 11.2822 123.732H25.5729C27.0526 123.732 28.2528 122.425 28.2528 120.811V105.222C28.2528 103.608 27.0526 102.3 25.5729 102.3Z" fill="#1D4277"/>
    <path d="M34.506 122.273C33.7661 122.273 33.166 121.618 33.166 120.811V105.222C33.166 104.415 33.7649 103.761 34.506 103.761H48.7967C49.5365 103.761 50.1366 104.415 50.1366 105.222V120.811C50.1366 121.618 49.5378 122.273 48.7967 122.273H34.506Z" fill="#F8BE2C"/>
    <path d="M48.7968 105.222V120.811H34.5062V105.222H48.7968ZM48.7968 102.3H34.5062C33.0264 102.3 31.8262 103.608 31.8262 105.222V120.811C31.8262 122.426 33.0264 123.732 34.5062 123.732H48.7968C50.2765 123.732 51.4755 122.425 51.4755 120.811V105.222C51.4755 103.608 50.2765 102.3 48.7968 102.3Z" fill="#332B75"/>
    <path d="M57.7287 122.273C56.9888 122.273 56.3887 121.618 56.3887 120.811V105.222C56.3887 104.415 56.9876 103.761 57.7287 103.761H72.0206C72.7604 103.761 73.3606 104.415 73.3606 105.222V120.811C73.3606 121.618 72.7617 122.273 72.0206 122.273H57.7287Z" fill="#FFCC00"/>
    <path d="M72.0207 105.222V120.811H57.7288V105.222H72.0207ZM72.0207 102.3H57.7288C56.2491 102.3 55.0488 103.608 55.0488 105.222V120.811C55.0488 122.426 56.2478 123.732 57.7288 123.732H72.0207C73.5004 123.732 74.6994 122.425 74.6994 120.811V105.222C74.6994 103.608 73.5004 102.3 72.0207 102.3Z" fill="#1D4277"/>
    <path d="M81.402 122.271C80.6786 122.271 80.0918 121.617 80.0918 120.81V78.4303C80.0918 77.6233 80.6786 76.9688 81.402 76.9688H95.3753C96.0987 76.9688 96.6855 77.6247 96.6855 78.4303V120.81C96.6855 121.617 96.1 122.271 95.3753 122.271H81.402Z" fill="#D90F17"/>
    <path d="M95.3757 78.432V120.811H81.4025V78.432H95.3757ZM95.3757 75.5088H81.4025C79.9556 75.5088 78.7832 76.8166 78.7832 78.4306V120.81C78.7832 122.425 79.9556 123.732 81.4025 123.732H95.3757C96.8226 123.732 97.995 122.424 97.995 120.81V78.4306C97.9962 76.8166 96.8226 75.5088 95.3757 75.5088Z" fill="#1D4277"/>
</svg>
