<svg width="55" height="54" viewBox="0 0 55 54" fill="none" xmlns="http://www.w3.org/2000/svg">
    <g clip-path="url(#clip0_13203_12427)">
        <path d="M48.1578 7.54464H47.3779C46.9487 7.54464 46.601 7.89235 46.601 8.32147C46.601 8.75058 46.9487 9.09829 47.3779 9.09829H48.1578C50.5006 9.09829 52.4066 11.0042 52.4066 13.3471V37.6171H40.183V30.0689L41.9145 27.7693C42.1726 27.4264 42.104 26.9394 41.7613 26.6814C41.4185 26.4233 40.9315 26.4921 40.6735 26.8346L38.7857 29.3418C38.6843 29.4765 38.6294 29.6405 38.6294 29.8091V37.6171H31.3884V31.775C31.3884 31.6947 31.3759 31.6147 31.3515 31.5382L31.1916 31.0384C30.3044 28.2664 31.0317 25.2661 33.0898 23.2081L37.3701 18.9277C37.5875 18.7103 37.8766 18.5905 38.184 18.5905C38.4914 18.5905 38.7805 18.7103 38.9978 18.9278C39.4466 19.3765 39.4466 20.1068 38.9978 20.5556L36.5424 23.011C36.239 23.3144 36.239 23.8062 36.5424 24.1096C36.8459 24.4129 37.3377 24.4129 37.6411 24.1096L40.0965 21.654C41.1511 20.5994 41.1511 18.8836 40.0965 17.829C39.5857 17.3181 38.9064 17.0368 38.184 17.0368C37.4615 17.0368 36.7822 17.3182 36.2714 17.8289L31.9911 22.1092C29.5199 24.5805 28.6465 28.1834 29.7117 31.5118L29.8347 31.8961V37.6169H25.2701V31.8961L25.3931 31.5118C26.4583 28.1834 25.585 24.5805 23.1138 22.1092L18.8334 17.829C18.3225 17.3181 17.6433 17.0368 16.9208 17.0368C16.1984 17.0368 15.5191 17.3182 15.0083 17.8289C14.4974 18.3399 14.2161 19.019 14.2161 19.7415C14.2161 20.464 14.4974 21.1432 15.0083 21.6541L17.4638 24.1096C17.7671 24.4129 18.259 24.4129 18.5623 24.1096C18.8657 23.8061 18.8657 23.3143 18.5623 23.011L16.1068 20.5556C15.8893 20.3381 15.7697 20.049 15.7697 19.7416C15.7697 19.4342 15.8894 19.1451 16.1068 18.9277C16.3242 18.7103 16.6133 18.5905 16.9207 18.5905C17.2281 18.5905 17.5172 18.7103 17.7346 18.9278L22.015 23.2081C24.073 25.266 24.8004 28.2665 23.9133 31.0384L23.7533 31.5382C23.7288 31.6147 23.7164 31.6947 23.7164 31.775V37.6171H16.4752V29.8091C16.4752 29.6405 16.4204 29.4765 16.319 29.3419L12.1297 23.7777C11.7482 23.2709 11.5381 22.6425 11.5381 22.0084V9.17265C11.5381 8.51629 12.0721 7.98236 12.7285 7.98236C13.3848 7.98236 13.9189 8.51629 13.9189 9.17265V15.3829C13.9189 15.812 14.2667 16.1597 14.6957 16.1597C15.1247 16.1597 15.4725 15.812 15.4725 15.3829V9.17265C15.4725 7.65972 14.2415 6.42871 12.7285 6.42871C11.2154 6.42871 9.98442 7.65972 9.98442 9.17265V22.0085C9.98442 22.9776 10.3055 23.9379 10.8885 24.7122L14.9216 30.0689V37.6171H11.4788C11.0498 37.6171 10.702 37.9648 10.702 38.3939C10.702 38.823 11.0498 39.1707 11.4788 39.1707H52.334C51.9678 41.1437 50.2351 42.6427 48.1577 42.6427H6.84347C4.76603 42.6427 3.03331 41.1437 2.66706 39.1707H8.16831C8.59732 39.1707 8.94513 38.823 8.94513 38.3939C8.94513 37.9648 8.59732 37.6171 8.16831 37.6171H2.59466V13.3471C2.59466 11.0043 4.50067 9.09829 6.84347 9.09829H7.72687C8.15588 9.09829 8.50369 8.75058 8.50369 8.32147C8.50369 7.89235 8.15588 7.54464 7.72687 7.54464H6.84347C3.64399 7.54464 1.04102 10.1476 1.04102 13.3471V38.3939C1.04102 41.5935 3.64399 44.1964 6.84347 44.1964H21.2412V46.9583L17.0057 51.6556H15.6986C15.2696 51.6556 14.9218 52.0033 14.9218 52.4324C14.9218 52.8616 15.2696 53.2093 15.6986 53.2093H39.3027C39.7318 53.2093 40.0796 52.8616 40.0796 52.4324C40.0796 52.0033 39.7318 51.6556 39.3027 51.6556H38.0992L33.8636 46.9583V44.1964H48.1578C51.3573 44.1964 53.9602 41.5934 53.9602 38.3939V13.3471C53.9602 10.1476 51.3573 7.54464 48.1578 7.54464ZM32.5099 47.7771L36.0071 51.6556H19.0976L22.5949 47.7771C22.7237 47.6344 22.7948 47.4491 22.7948 47.2569V44.1965H32.3101V47.2569C32.3101 47.4491 32.3812 47.6344 32.5099 47.7771Z" fill="#509D50"/>
        <path d="M40.4096 16.1597C40.8388 16.1597 41.1865 15.812 41.1865 15.3829V9.17265C41.1865 8.51629 41.7205 7.98236 42.3769 7.98236C43.0332 7.98236 43.5673 8.51629 43.5673 9.17265V22.0085C43.5673 22.6425 43.3571 23.2709 42.9756 23.7777L42.6849 24.1639C42.4268 24.5067 42.4955 24.9937 42.8381 25.2517C42.9781 25.3572 43.1422 25.408 43.3048 25.408C43.5404 25.408 43.7733 25.3013 43.9259 25.0986L44.2168 24.7123C44.7998 23.9378 45.1209 22.9776 45.1209 22.0086V9.17265C45.1209 7.65972 43.8899 6.42871 42.3769 6.42871C40.8638 6.42871 39.6328 7.65972 39.6328 9.17265V15.3829C39.6328 15.8119 39.9805 16.1597 40.4096 16.1597Z" fill="#509D50"/>
        <path d="M27.5006 19.8565C32.9319 19.8565 37.3507 15.4377 37.3507 10.0063C37.3507 4.57482 32.9319 0.15625 27.5006 0.15625C25.4982 0.15625 23.5689 0.756786 21.9215 1.89302C21.5683 2.13663 21.4794 2.62023 21.7229 2.97353C21.9664 3.32672 22.4502 3.41569 22.8034 3.17198C24.1904 2.21545 25.8146 1.7099 27.5006 1.7099C32.0753 1.7099 35.7971 5.4317 35.7971 10.0064C35.7971 14.5811 32.0753 18.3029 27.5006 18.3029C22.9259 18.3029 19.2041 14.5811 19.2041 10.0064C19.2041 8.32283 19.7083 6.70051 20.6623 5.31477C20.9056 4.96136 20.8163 4.47766 20.4629 4.23436C20.1094 3.99085 19.6257 4.08045 19.3825 4.43375C18.2494 6.07988 17.6504 8.00671 17.6504 10.0064C17.6505 15.4377 22.0693 19.8565 27.5006 19.8565Z" fill="#509D50"/>
        <path d="M27.665 13.3601C26.8156 13.3663 26.5523 13.3235 25.8975 12.8952C25.5384 12.6604 25.057 12.7609 24.8222 13.12C24.5873 13.4791 24.6879 13.9605 25.0469 14.1954C25.7459 14.6527 26.2549 14.8287 26.8934 14.8878V15.352C26.8934 15.7811 27.2412 16.1288 27.6702 16.1288C28.0993 16.1288 28.447 15.7811 28.447 15.352V14.815C29.7156 14.4887 30.5287 13.4032 30.7087 12.3327C30.9409 10.9512 30.1908 9.7026 28.8422 9.22595C28.0608 8.94981 27.1959 8.61557 26.7057 8.2312C26.5289 8.09251 26.4536 7.7969 26.5137 7.47799C26.5733 7.16136 26.7872 6.77792 27.2085 6.65114C28.2321 6.34269 29.0734 6.96021 29.1199 6.99512C29.457 7.25623 29.9423 7.19678 30.2064 6.86078C30.4714 6.52343 30.4127 6.03507 30.0753 5.77012C30.0355 5.73884 29.3974 5.24789 28.447 5.07316V4.66061C28.447 4.23149 28.0993 3.88379 27.6702 3.88379C27.2412 3.88379 26.8934 4.23149 26.8934 4.66061V5.12681C26.8492 5.13831 26.8049 5.15001 26.7603 5.16347C25.8503 5.43754 25.1708 6.21436 24.9869 7.19036C24.818 8.0864 25.1092 8.95364 25.7469 9.45381C26.2846 9.87547 27.0312 10.2338 28.3243 10.6909C29.2486 11.0176 29.2282 11.7679 29.1765 12.0753C29.0732 12.69 28.5561 13.3543 27.665 13.3601Z" fill="#509D50"/>
    </g>
    <defs>
        <clipPath id="clip0_13203_12427">
            <rect width="53.0526" height="53.0526" fill="white" transform="translate(0.974609 0.15625)"/>
        </clipPath>
    </defs>
</svg>