<svg width="60" height="55" viewBox="0 0 60 55" fill="none" xmlns="http://www.w3.org/2000/svg">
    <path d="M58.881 29.3425C58.1699 28.8148 57.2761 28.6593 56.4281 28.9162L40.6037 33.7097C40.6059 33.6041 40.6016 33.4974 40.5905 33.39C40.4521 32.0593 39.2977 31.0571 37.9594 31.1046L34.2898 31.2398C32.1527 31.3184 29.9937 31.215 27.8734 30.9321L26.2536 30.7161C22.4156 30.2037 18.5511 31.3817 15.6507 33.9468L11.5271 37.5937V36.9203C11.5271 35.8977 10.6951 35.0659 9.67266 35.0659H1.85449C0.832031 35.0661 0 35.8979 0 36.9204V39.16C0 39.6455 0.393398 40.0389 0.878906 40.0389C1.36441 40.0389 1.75781 39.6455 1.75781 39.16V36.9204C1.75781 36.8672 1.80117 36.8239 1.85449 36.8239H9.67266C9.72598 36.8239 9.76934 36.8672 9.76934 36.9204V51.8835V51.8969V52.9281C9.76934 52.9814 9.72598 53.0248 9.67266 53.0248H1.85449C1.80117 53.0248 1.75781 52.9814 1.75781 52.9281V42.5586C1.75781 42.073 1.36441 41.6796 0.878906 41.6796C0.393398 41.6796 0 42.073 0 42.5586V52.9281C0 53.9507 0.832031 54.7826 1.85449 54.7826H9.67266C10.6952 54.7826 11.5271 53.9506 11.5271 52.9281V52.3609L14.7442 50.2115C16.7079 48.8996 19.0723 48.391 21.4018 48.7786L25.0482 49.3862C30.9807 50.3747 36.9667 49.0279 41.9045 45.595L48.0066 41.3523C48.4051 41.0752 48.5036 40.5275 48.2265 40.129C47.9494 39.7306 47.4019 39.632 47.0032 39.9091L40.9011 44.1517C36.3418 47.3215 30.8147 48.5649 25.3372 47.6522L21.6908 47.0446C18.9178 46.583 16.1045 47.1886 13.7677 48.7498L11.5273 50.2468V39.9406L16.8155 35.2638C19.3336 33.0365 22.6887 32.0141 26.0215 32.4586L27.6411 32.6747C29.8597 32.9706 32.1179 33.079 34.3547 32.9965L38.0244 32.8614C38.4407 32.8479 38.7991 33.1581 38.8423 33.5718C38.8813 33.9468 38.6518 34.2955 38.2945 34.4093C30.2257 36.7428 31.1556 36.4738 31.0822 36.495C29.8245 36.8588 28.7203 37.5857 27.889 38.5969L27.0614 39.6034C26.7531 39.9783 26.8071 40.5323 27.1821 40.8405C27.3457 40.975 27.5433 41.0405 27.7398 41.0405C27.9935 41.0405 28.2454 40.9311 28.4191 40.7198L29.2467 39.7132C29.8516 38.9775 30.6552 38.4486 31.5704 38.1838C40.5328 35.5376 32.1063 38.1211 44.535 34.3557L56.9379 30.5985C57.2471 30.5049 57.574 30.5615 57.8336 30.7541C58.0934 30.9469 58.2422 31.2428 58.2422 31.5663C58.2422 31.8973 58.08 32.2077 57.8084 32.3965L49.9061 37.8907C49.5075 38.1679 49.4091 38.7156 49.6861 39.1141C49.857 39.3598 50.1305 39.4914 50.4086 39.4914C50.5818 39.4914 50.7566 39.4403 50.9094 39.334L58.8117 33.8398C59.5559 33.3224 60 32.4726 60 31.5663C60 30.6807 59.5922 29.8701 58.881 29.3425Z" fill="#D90F17"/>
    <path d="M8.00586 50.1886V49.2598C8.00586 48.7743 7.61246 48.3809 7.12695 48.3809C6.64145 48.3809 6.24805 48.7743 6.24805 49.2598V50.1886C6.24805 50.6741 6.64145 51.0675 7.12695 51.0675C7.61246 51.0675 8.00586 50.674 8.00586 50.1886Z" fill="#D90F17"/>
    <path d="M6.26249 1.82949L11.4101 5.22254C11.559 5.32074 11.7269 5.36774 11.893 5.36774C12.1786 5.36774 12.4587 5.22863 12.6276 4.97246C12.8948 4.56711 12.7828 4.02207 12.3776 3.75488L7.22987 0.361838C6.82476 0.0950018 6.2796 0.206681 6.0123 0.611916C5.74523 1.01727 5.85726 1.56231 6.26249 1.82949Z" fill="#D90F17"/>
    <path d="M6.74703 22.651C6.91309 22.651 7.08102 22.604 7.22996 22.5058L12.3777 19.1127C12.7829 18.8456 12.8949 18.3005 12.6277 17.8951C12.3607 17.49 11.8156 17.3781 11.4102 17.6451L6.26246 21.0381C5.85723 21.3052 5.7452 21.8503 6.01238 22.2557C6.18137 22.5119 6.46145 22.651 6.74703 22.651Z" fill="#D90F17"/>
    <path d="M11.7959 10.5547H6.8418C6.35629 10.5547 5.96289 10.9481 5.96289 11.4336C5.96289 11.9191 6.35629 12.3125 6.8418 12.3125H11.7959C12.2814 12.3125 12.6748 11.9191 12.6748 11.4336C12.6748 10.9481 12.2814 10.5547 11.7959 10.5547Z" fill="#D90F17"/>
    <path d="M49.622 5.36776C49.7881 5.36776 49.956 5.32077 50.105 5.22256L55.2527 1.82952C55.6579 1.56245 55.7699 1.01729 55.5027 0.611937C55.2357 0.20682 54.6905 0.0949062 54.2852 0.361859L49.1375 3.75491C48.7322 4.02198 48.6202 4.56713 48.8874 4.97248C49.0564 5.22877 49.3364 5.36776 49.622 5.36776Z" fill="#D90F17"/>
    <path d="M49.1375 19.1118L54.2852 22.5048C54.4341 22.603 54.602 22.65 54.7681 22.65C55.0537 22.65 55.3337 22.5109 55.5027 22.2547C55.7699 21.8494 55.6579 21.3043 55.2527 21.0372L50.105 17.6441C49.6998 17.3772 49.1547 17.489 48.8874 17.8942C48.6202 18.2997 48.7322 18.8447 49.1375 19.1118Z" fill="#D90F17"/>
    <path d="M54.6729 10.5547H49.7187C49.2332 10.5547 48.8398 10.9481 48.8398 11.4336C48.8398 11.9191 49.2332 12.3125 49.7187 12.3125H54.6729C55.1584 12.3125 55.5518 11.9191 55.5518 11.4336C55.5518 10.9481 55.1584 10.5547 54.6729 10.5547Z" fill="#D90F17"/>
    <path d="M30.1196 25.6415C30.2856 25.8159 30.5157 25.9147 30.7565 25.9147C30.9974 25.9147 31.2275 25.8159 31.3935 25.6415L46.8493 9.38949C47.1793 9.0425 47.1708 8.49523 46.8303 8.15867L40.9268 2.32414C40.7622 2.16148 40.5402 2.07031 40.309 2.07031H21.2042C20.9729 2.07031 20.751 2.16148 20.5864 2.32414L18.9909 3.90113C18.6458 4.24227 18.6424 4.79879 18.9837 5.14402C19.3249 5.48938 19.8814 5.49254 20.2265 5.15129L21.5653 3.82812H25.5347L23.87 7.85012H17.4955L17.7848 7.56418C18.1301 7.22305 18.1335 6.66652 17.7921 6.32129C17.451 5.97617 16.8946 5.97254 16.5492 6.31402L14.683 8.15867C14.3424 8.49523 14.3339 9.0425 14.6639 9.38949L30.1196 25.6415ZM23.8125 9.60805L28.3215 21.2L17.2974 9.60805H23.8125ZM44.2156 9.60805L33.1919 21.1996L37.7007 9.60805H44.2156ZM30.7567 22.6115L25.6986 9.60805H35.8147L30.7567 22.6115ZM39.9478 3.82812L44.0174 7.85012H37.6431L35.9785 3.82812H39.9478ZM27.4371 3.82824H34.0762L35.7406 7.85012H25.7726L27.4371 3.82824Z" fill="#D90F17"/>
</svg>
