<svg width="54" height="54" viewBox="0 0 54 54" fill="none" xmlns="http://www.w3.org/2000/svg">
    <g clip-path="url(#clip0_13203_12381)">
        <path d="M50.0577 35.7838C49.6281 35.7838 49.2801 36.132 49.2801 36.5615V45.5112C49.2801 46.3554 48.5933 47.0421 47.7491 47.0421H25.3494V44.7559C25.3494 44.5225 25.3037 44.2242 25.1472 43.8967C26.1103 43.5436 26.9049 43.112 27.453 42.6038H29.0208C30.2687 42.6038 31.284 41.5884 31.284 40.3404C31.284 39.0924 30.2687 38.0772 29.0208 38.0772H28.2809V36.5801C28.2809 36.5627 28.2802 36.545 28.2797 36.5274H29.0208C30.2687 36.5274 31.284 35.512 31.284 34.264C31.284 33.0161 30.2687 32.0008 29.0208 32.0008H27.0952C26.3918 32.0008 25.7623 32.3235 25.3469 32.8285C25.348 32.8013 25.3495 32.7741 25.3495 32.7466V29.6263C25.7649 30.1294 26.3932 30.4507 27.0951 30.4507H29.0207C30.2686 30.4507 31.2839 29.4354 31.2839 28.1875C31.2839 26.9395 30.2686 25.9242 29.0207 25.9242H28.2808V22.8885H29.0207C30.2686 22.8885 31.2839 21.8733 31.2839 20.6253C31.2839 19.3773 30.2686 18.3621 29.0207 18.3621H27.095C26.4791 18.3621 25.8951 18.6167 25.4737 19.0483C23.3374 18.1891 20.2521 17.7484 17.1871 17.7484C16.2139 17.7484 15.2386 17.793 14.2922 17.8812V3.24252C14.2922 2.39834 14.9789 1.71156 15.8231 1.71156H22.1162C22.5457 1.71156 22.8938 1.3634 22.8938 0.933905C22.8938 0.504407 22.5457 0.15625 22.1162 0.15625H15.8231C14.1213 0.15625 12.7368 1.5408 12.7368 3.24252V18.0704C9.02483 18.6321 6.09357 19.9236 6.09357 21.8972V25.5041C3.67813 26.4377 3.16211 27.5905 3.16211 28.4041V32.7466C3.16211 34.0315 4.4047 35.0273 6.29594 35.7209C6.13958 36.0481 6.09368 36.3462 6.09368 36.5801V40.9226C6.09368 41.2246 6.16258 41.5106 6.29221 41.7805C3.73253 42.7126 3.16211 43.8917 3.16211 44.756V49.0984C3.16211 51.686 8.03932 52.9156 12.2159 53.1825C12.2327 53.1835 12.2494 53.1841 12.2661 53.1841C12.6729 53.1841 13.0152 52.8677 13.0415 52.456C13.0688 52.0273 12.7436 51.6576 12.3149 51.6303C7.01163 51.2915 4.71742 49.7897 4.71742 49.0984V46.9832C6.7588 48.2509 10.5225 48.9045 14.2557 48.9045C17.9888 48.9045 21.7526 48.2509 23.7939 46.9832V49.0984C23.7939 49.8736 21.1128 51.3908 15.7709 51.6545C15.3419 51.6756 15.0113 52.0406 15.0325 52.4696C15.053 52.8856 15.3967 53.2089 15.8085 53.2089C15.8215 53.2089 15.8344 53.2086 15.8475 53.2079C20.577 52.9745 25.3494 51.6133 25.3494 49.0984V48.5977H47.7492C49.4511 48.5977 50.8355 47.2131 50.8355 45.5114V36.5617C50.8355 36.1321 50.4872 35.7838 50.0577 35.7838ZM28.2808 40.9226V39.6327H29.0207V39.6326C29.411 39.6326 29.7285 39.9501 29.7285 40.3404C29.7285 40.7308 29.4109 41.0483 29.0207 41.0483H28.2768C28.2795 41.0068 28.2808 40.9647 28.2808 40.9226ZM27.0951 33.5561H29.0207C29.411 33.5561 29.7285 33.8736 29.7285 34.2639C29.7285 34.6543 29.4109 34.9719 29.0207 34.9719H27.5373C27.2602 34.6964 26.8884 34.4207 26.3965 34.1547C26.4493 33.8163 26.742 33.5561 27.0951 33.5561ZM26.7255 36.58C26.7255 36.8891 26.202 37.5833 24.2402 38.2242C22.3676 38.8361 19.8629 39.1731 17.1873 39.1731C11.0155 39.1731 7.64899 37.4601 7.64899 36.58C7.64878 36.4453 7.73551 36.3041 7.83457 36.1861C9.72746 36.6557 11.9971 36.895 14.2556 36.895C18.1049 36.895 21.9867 36.2001 23.9793 34.8536C26.1449 35.5096 26.7255 36.2644 26.7255 36.58ZM29.0208 27.4798C29.411 27.4796 29.7285 27.7971 29.7285 28.1876C29.7285 28.5779 29.4109 28.8954 29.0207 28.8954H27.0951C26.8552 28.8954 26.6433 28.7752 26.5153 28.5923C27.0901 28.2651 27.546 27.8939 27.8506 27.4798H29.0208ZM27.0951 19.9178H29.0207C29.411 19.9178 29.7285 20.2353 29.7285 20.6256C29.7285 21.0159 29.4109 21.3334 29.0207 21.3334H28.1964C28.0361 20.8045 27.6513 20.3322 27.0921 19.9179C27.0933 19.9179 27.0941 19.9178 27.0951 19.9178ZM10.1342 20.253C12.0068 19.6411 14.5114 19.3042 17.1871 19.3042C23.3589 19.3042 26.7254 21.0172 26.7254 21.8973C26.7254 22.2064 26.2019 22.9006 24.2401 23.5415C22.3675 24.1534 19.8628 24.4904 17.1871 24.4904C11.0154 24.4904 7.64888 22.7773 7.64888 21.8973C7.64878 21.5881 8.17236 20.894 10.1342 20.253ZM7.64867 24.1245C9.69016 25.3922 13.4539 26.0458 17.187 26.0458C20.9202 26.0458 24.6839 25.3921 26.7253 24.1245V26.2398C26.7253 26.4828 26.4011 26.964 25.3085 27.4702C25.3056 27.4715 25.3029 27.4728 25.3001 27.4741C25.0051 27.6103 24.6551 27.7483 24.2399 27.884C22.3673 28.4958 19.8627 28.8328 17.1869 28.8328C11.0153 28.8328 7.64867 27.1198 7.64867 26.2396V24.1245ZM6.2949 27.1032C7.33958 29.2635 12.2899 30.3881 17.1871 30.3881C18.4573 30.3881 19.7309 30.3123 20.9392 30.1625C19.1117 30.7007 16.7403 30.9972 14.2558 30.9972C8.08408 30.9972 4.71752 29.2842 4.71752 28.404C4.71742 28.0825 5.21075 27.5793 6.2949 27.1032ZM4.71742 32.7465V30.6312C6.7588 31.8989 10.5225 32.5525 14.2557 32.5525C17.7762 32.5525 21.6843 31.9422 23.7939 30.6336V32.7465C23.7939 33.0555 23.2705 33.7497 21.3087 34.3907C19.4361 35.0025 16.9314 35.3395 14.2557 35.3395C8.08398 35.3396 4.71742 33.6267 4.71742 32.7465ZM21.3087 46.4002C19.4361 47.0121 16.9314 47.3491 14.2557 47.3491C8.08398 47.3491 4.71742 45.636 4.71742 44.7559C4.71742 44.3199 5.57849 43.602 7.46361 43.0296C9.45629 44.3759 13.338 45.0709 17.1871 45.0709C19.4458 45.0709 21.7155 44.8316 23.6085 44.3619C23.7068 44.479 23.7939 44.6209 23.7939 44.7559C23.7939 45.065 23.2705 45.7591 21.3087 46.4002ZM24.24 42.5667C22.3675 43.1785 19.8628 43.5155 17.187 43.5155C11.0154 43.5155 7.64878 41.8025 7.64878 40.9225V38.8072C9.69016 40.0749 13.4539 40.7285 17.187 40.7285C20.9202 40.7285 24.6839 40.0749 26.7253 38.8072V40.9225C26.7254 41.2315 26.2019 41.9257 24.24 42.5667Z" fill="#509D50"/>
        <path d="M47.7515 0.15625H25.6624C25.2329 0.15625 24.8848 0.504407 24.8848 0.933905C24.8848 1.3634 25.2329 1.71156 25.6624 1.71156H47.7516C48.5958 1.71156 49.2826 2.39834 49.2826 3.24252V33.0175C49.2826 33.447 49.6307 33.7952 50.0603 33.7952C50.4899 33.7952 50.8379 33.447 50.8379 33.0175V3.24252C50.8379 1.5408 49.4534 0.15625 47.7515 0.15625Z" fill="#509D50"/>
        <path d="M46.3588 6.51008C46.3588 6.08058 46.0108 5.73242 45.5812 5.73242H17.9925C17.563 5.73242 17.2148 6.08058 17.2148 6.51008V14.1541C17.2148 14.5836 17.563 14.9318 17.9925 14.9318H45.5813C46.0109 14.9318 46.3589 14.5836 46.3589 14.1541L46.3588 6.51008ZM44.8035 13.3764H18.7702V7.28773H44.8035V13.3764Z" fill="#509D50"/>
        <path d="M36.4778 18.3623H34.5523C33.3043 18.3623 32.2891 19.3776 32.2891 20.6255C32.2891 21.8735 33.3043 22.8888 34.5523 22.8888H36.4778C37.7258 22.8888 38.7411 21.8735 38.7411 20.6255C38.7411 19.3776 37.7257 18.3623 36.4778 18.3623ZM36.4778 21.3334H34.5523C34.162 21.3334 33.8445 21.0159 33.8445 20.6255C33.8445 20.2352 34.1621 19.9177 34.5523 19.9177H36.4778C36.8682 19.9177 37.1856 20.2352 37.1856 20.6255C37.1856 21.0159 36.8681 21.3334 36.4778 21.3334Z" fill="#509D50"/>
        <path d="M43.9368 18.3623H42.0113C40.7633 18.3623 39.748 19.3776 39.748 20.6255C39.748 21.8735 40.7633 22.8888 42.0113 22.8888H43.9368C45.1848 22.8888 46.2 21.8735 46.2 20.6255C46.2 19.3776 45.1848 18.3623 43.9368 18.3623ZM43.9368 21.3334H42.0113C41.6209 21.3334 41.3035 21.0159 41.3035 20.6255C41.3035 20.2352 41.6211 19.9177 42.0113 19.9177H43.9368C44.3271 19.9177 44.6446 20.2352 44.6446 20.6255C44.6446 21.0159 44.3271 21.3334 43.9368 21.3334Z" fill="#509D50"/>
        <path d="M36.4778 25.9238H34.5523C33.3043 25.9238 32.2891 26.9391 32.2891 28.1871C32.2891 29.435 33.3043 30.4503 34.5523 30.4503H36.4778C37.7258 30.4503 38.7411 29.435 38.7411 28.1871C38.7411 26.9391 37.7257 25.9238 36.4778 25.9238ZM36.4778 28.895H34.5523C34.162 28.895 33.8445 28.5775 33.8445 28.1872C33.8445 27.7968 34.1621 27.4793 34.5523 27.4793H36.4778C36.8682 27.4793 37.1856 27.7968 37.1856 28.1872C37.1855 28.5775 36.8681 28.895 36.4778 28.895Z" fill="#509D50"/>
        <path d="M43.9368 25.9238H42.0113C40.7633 25.9238 39.748 26.9391 39.748 28.1871C39.748 29.435 40.7633 30.4503 42.0113 30.4503H43.9368C45.1848 30.4503 46.2 29.435 46.2 28.1871C46.2 26.9391 45.1848 25.9238 43.9368 25.9238ZM43.9368 28.895H42.0113C41.6209 28.895 41.3035 28.5775 41.3035 28.1872C41.3035 27.7968 41.6211 27.4793 42.0113 27.4793H43.9368C44.3271 27.4793 44.6446 27.7968 44.6446 28.1872C44.6446 28.5775 44.3271 28.895 43.9368 28.895Z" fill="#509D50"/>
        <path d="M36.4778 32.001H34.5523C33.3043 32.001 32.2891 33.0162 32.2891 34.2642C32.2891 35.5122 33.3043 36.5275 34.5523 36.5275H36.4778C37.7258 36.5275 38.7411 35.5122 38.7411 34.2642C38.7411 33.0162 37.7257 32.001 36.4778 32.001ZM36.4778 34.9721H34.5523C34.162 34.9721 33.8445 34.6545 33.8445 34.2642C33.8445 33.8739 34.1621 33.5564 34.5523 33.5564H36.4778C36.8682 33.5564 37.1856 33.8739 37.1856 34.2642C37.1855 34.6545 36.8681 34.9721 36.4778 34.9721Z" fill="#509D50"/>
        <path d="M43.9368 32.001H42.0113C40.7633 32.001 39.748 33.0162 39.748 34.2642C39.748 35.5122 40.7633 36.5275 42.0113 36.5275H43.9368C45.1848 36.5275 46.2 35.5122 46.2 34.2642C46.2 33.0162 45.1848 32.001 43.9368 32.001ZM43.9368 34.9721H42.0113C41.6209 34.9721 41.3035 34.6545 41.3035 34.2642C41.3035 33.8739 41.6211 33.5564 42.0113 33.5564H43.9368C44.3271 33.5564 44.6446 33.8739 44.6446 34.2642C44.6446 34.6545 44.3271 34.9721 43.9368 34.9721Z" fill="#509D50"/>
        <path d="M36.4778 38.0771H34.5523C33.3043 38.0771 32.2891 39.0924 32.2891 40.3404C32.2891 41.5884 33.3043 42.6037 34.5523 42.6037H36.4778C37.7258 42.6037 38.7411 41.5884 38.7411 40.3404C38.741 39.0924 37.7257 38.0771 36.4778 38.0771ZM36.4778 41.0482H34.5523C34.162 41.0482 33.8445 40.7306 33.8445 40.3403C33.8445 39.9499 34.1621 39.6325 34.5523 39.6325H36.4778C36.8682 39.6325 37.1856 39.9499 37.1856 40.3403C37.1855 40.7306 36.8681 41.0482 36.4778 41.0482Z" fill="#509D50"/>
        <path d="M43.9368 38.0771H42.0113C40.7633 38.0771 39.748 39.0924 39.748 40.3404C39.748 41.5884 40.7633 42.6037 42.0113 42.6037H43.9368C45.1848 42.6037 46.2 41.5884 46.2 40.3404C46.2 39.0924 45.1848 38.0771 43.9368 38.0771ZM43.9368 41.0482H42.0113C41.6209 41.0482 41.3035 40.7306 41.3035 40.3403C41.3035 39.9499 41.6211 39.6325 42.0113 39.6325H43.9368C44.3271 39.6325 44.6446 39.9499 44.6446 40.3403C44.6446 40.7306 44.3271 41.0482 43.9368 41.0482Z" fill="#509D50"/>
        <path d="M10.2215 15.5107H7.59211C7.16261 15.5107 6.81445 15.8589 6.81445 16.2884C6.81445 16.7179 7.16261 17.0661 7.59211 17.0661H10.2215C10.651 17.0661 10.9992 16.7179 10.9992 16.2884C10.9992 15.8589 10.651 15.5107 10.2215 15.5107Z" fill="#509D50"/>
        <path d="M10.2215 13.1006H7.59211C7.16261 13.1006 6.81445 13.4487 6.81445 13.8782C6.81445 14.3077 7.16261 14.6559 7.59211 14.6559H10.2215C10.651 14.6559 10.9992 14.3077 10.9992 13.8782C10.9992 13.4487 10.651 13.1006 10.2215 13.1006Z" fill="#509D50"/>
        <path d="M10.2132 10.4268C9.7837 10.4268 9.43555 10.7749 9.43555 11.2044C9.43555 11.6339 9.7837 11.9821 10.2132 11.9821H10.2236C10.6531 11.9821 10.996 11.6339 10.996 11.2044C10.996 10.7749 10.6427 10.4268 10.2132 10.4268Z" fill="#509D50"/>
    </g>
    <defs>
        <clipPath id="clip0_13203_12381">
            <rect width="53.0526" height="53.0526" fill="white" transform="translate(0.474609 0.15625)"/>
        </clipPath>
    </defs>
</svg>