<svg width="52" height="52" viewBox="0 0 52 52" fill="none" xmlns="http://www.w3.org/2000/svg">
    <path d="M32.6884 43.1498C33.3185 43.1498 33.8311 42.6372 33.8311 42.0071V38.4929C33.8311 37.3336 32.8881 36.3906 31.7289 36.3906H30.0516C28.8923 36.3906 27.9492 37.3336 27.9492 38.4929V42.0071C27.9492 42.6372 28.4618 43.1498 29.0919 43.1498H32.6884ZM29.4727 38.4929C29.4727 38.1737 29.7323 37.9141 30.0516 37.9141H31.7289C32.0481 37.9141 32.3077 38.1738 32.3077 38.4929V41.6264H29.4727V38.4929Z" fill="#312C73"/>
    <path d="M43.8271 43.1498C44.4572 43.1498 44.9698 42.6372 44.9698 42.0071V38.4929C44.9698 37.3336 44.0268 36.3906 42.8675 36.3906H41.1901C40.0309 36.3906 39.0879 37.3336 39.0879 38.4929V42.0071C39.0879 42.6372 39.6005 43.1498 40.2306 43.1498H43.8271ZM40.6113 38.4929C40.6113 38.1737 40.871 37.9141 41.1901 37.9141H42.8675C43.1867 37.9141 43.4463 38.1738 43.4463 38.4929V41.6264H40.6113V38.4929Z" fill="#312C73"/>
    <path d="M37.3205 34.8877C37.7413 34.8877 38.0822 34.5468 38.0822 34.126C38.0822 33.7052 37.7413 33.3643 37.3205 33.3643H35.5996C35.1788 33.3643 34.8379 33.7052 34.8379 34.126C34.8379 34.5468 35.1788 34.8877 35.5996 34.8877H37.3205Z" fill="#312C73"/>
    <path d="M49.4888 50.4762H48.7099V33.9706C48.7099 33.6593 48.5203 33.3792 48.2312 33.2635L36.7425 28.665C36.5608 28.5921 36.3581 28.5921 36.1764 28.665L24.6875 33.2635C24.3984 33.3792 24.2089 33.6592 24.2089 33.9706V37.947C24.2089 38.3677 24.5498 38.7087 24.9706 38.7087C25.3913 38.7087 25.7323 38.3677 25.7323 37.947V34.4862L36.4594 30.1926L47.1864 34.4862V50.4761H39.9492V46.1432C39.9492 45.288 39.2534 44.5923 38.3982 44.5923H34.5203C33.6651 44.5923 32.9695 45.288 32.9695 46.1432V50.4761H25.7321V40.8923C25.7321 40.4715 25.3911 40.1305 24.9704 40.1305C24.5496 40.1305 24.2087 40.4715 24.2087 40.8923V50.4761H23.4297C23.0089 50.4761 22.668 50.8171 22.668 51.2378C22.668 51.6586 23.0089 51.9995 23.4297 51.9995H49.4886C49.9094 51.9995 50.2503 51.6586 50.2503 51.2378C50.2503 50.8171 49.9096 50.4762 49.4888 50.4762ZM34.4931 46.1433C34.4931 46.1283 34.5054 46.1159 34.5205 46.1159H38.3984C38.4136 46.1159 38.4259 46.1282 38.4259 46.1433V50.4762H34.4932L34.4931 46.1433Z" fill="#312C73"/>
    <path d="M51.9229 23.5798C51.8132 23.2953 51.5992 23.0704 51.3203 22.9467L47.2467 21.1408C46.8621 20.9699 46.412 21.1439 46.2417 21.5284C46.0711 21.913 46.2447 22.363 46.6292 22.5335L50.3542 24.1847L49.6879 25.6877L36.768 19.9601C36.5714 19.873 36.347 19.873 36.1505 19.9601L23.2309 25.6877L22.5645 24.1848L36.126 18.1726C36.3379 18.0788 36.5807 18.0788 36.7924 18.1726L43.9353 21.3393C44.3198 21.5096 44.7699 21.3361 44.9404 20.9517C45.1109 20.5671 44.9373 20.1171 44.5528 19.9467L37.4098 16.78C37.3477 16.7525 37.2848 16.7279 37.2211 16.706V11.9541H47.895C48.3317 11.9541 48.732 11.7153 48.9395 11.331C49.147 10.9467 49.1272 10.481 48.8877 10.1158L46.9801 7.2062C46.76 6.87033 46.3888 6.66985 45.9873 6.66985H17.3937C16.973 6.66985 16.632 7.01079 16.632 7.43156C16.632 7.85233 16.973 8.19327 17.3937 8.19327H45.8057L47.2725 10.4307H2.17189L3.63885 8.19327H14.4484C14.8692 8.19327 15.2102 7.85233 15.2102 7.43156C15.2102 7.01079 14.8692 6.66985 14.4484 6.66985H11.9431V4.0847C11.9431 3.40779 11.3924 2.85713 10.7155 2.85713H9.65149V0.761711C9.65149 0.340942 9.31055 0 8.88978 0C8.46901 0 8.12807 0.340942 8.12807 0.761711V2.85723H7.06421C6.3873 2.85723 5.83654 3.4079 5.83654 4.0848V6.66975H3.45715C3.05527 6.66975 2.68407 6.87043 2.46439 7.20599L0.556659 10.1156C0.317177 10.4809 0.297271 10.9466 0.504761 11.3309C0.712352 11.7152 1.11261 11.954 1.54942 11.954H5.83644V22.7073H5.77022C5.34945 22.7073 5.00851 23.0483 5.00851 23.469C5.00851 23.8898 5.34945 24.2307 5.77022 24.2307H5.83644V26.6655H5.77022C5.34945 26.6655 5.00851 27.0064 5.00851 27.4272C5.00851 27.848 5.34945 28.1889 5.77022 28.1889H5.83644V30.6236H5.77022C5.34945 30.6236 5.00851 30.9646 5.00851 31.3854C5.00851 31.8061 5.34945 32.1471 5.77022 32.1471H5.83644V34.5818H5.77022C5.34945 34.5818 5.00851 34.9227 5.00851 35.3435C5.00851 35.7643 5.34945 36.1052 5.77022 36.1052H5.83644V38.54H5.77022C5.34945 38.54 5.00851 38.8809 5.00851 39.3017C5.00851 39.7224 5.34945 40.0634 5.77022 40.0634H5.83644V42.4981H5.77022C5.34945 42.4981 5.00851 42.8391 5.00851 43.2598C5.00851 43.6806 5.34945 44.0215 5.77022 44.0215H5.83644V45.4498H1.23133C0.552291 45.4497 0 46.002 0 46.681V50.7682C0 51.4472 0.552291 51.9995 1.23133 51.9995H7.32299C7.74376 51.9995 8.0847 51.6586 8.0847 51.2378C8.0847 50.817 7.74376 50.4761 7.32299 50.4761H1.52342V46.9731H16.2561V50.4761H10.2683C9.8475 50.4761 9.50656 50.817 9.50656 51.2378C9.50656 51.6586 9.8475 51.9995 10.2683 51.9995H16.5482C17.2273 51.9995 17.7796 51.4471 17.7796 50.7682V46.681C17.7796 46.002 17.2273 45.4497 16.5482 45.4497H11.943V44.0214H12.0092C12.43 44.0214 12.771 43.6805 12.771 43.2597C12.771 42.839 12.43 42.498 12.0092 42.498H11.943V40.0633H12.0092C12.43 40.0633 12.771 39.7223 12.771 39.3016C12.771 38.8808 12.43 38.5399 12.0092 38.5399H11.943V36.1051H12.0092C12.43 36.1051 12.771 35.7642 12.771 35.3434C12.771 34.9226 12.43 34.5817 12.0092 34.5817H11.943V32.147H12.0092C12.43 32.147 12.771 31.806 12.771 31.3853C12.771 30.9645 12.43 30.6235 12.0092 30.6235H11.943V28.1888H12.0092C12.43 28.1888 12.771 27.8479 12.771 27.4271C12.771 27.0063 12.43 26.6654 12.0092 26.6654H11.943V24.2306H12.0092C12.43 24.2306 12.771 23.8897 12.771 23.4689C12.771 23.0482 12.43 22.7072 12.0092 22.7072H11.943V20.5019H19.7373C20.2992 20.5019 20.8217 20.2235 21.1352 19.7571C21.4486 19.2906 21.509 18.7015 21.2966 18.1812L18.7552 11.954H35.6977V16.7059C35.6339 16.7277 35.5708 16.7524 35.5087 16.7799L21.5983 22.9468C21.0228 23.2021 20.7622 23.878 21.0172 24.4537L21.9926 26.6535C22.1162 26.9326 22.3412 27.1467 22.6259 27.2566C22.7592 27.3081 22.8984 27.3337 23.0372 27.3337C23.1945 27.3337 23.3515 27.3007 23.4997 27.235L36.4594 21.4897L49.4193 27.2351C49.9948 27.4901 50.6709 27.2294 50.9261 26.6538L51.9014 24.4539C52.0251 24.1749 52.0327 23.8644 51.9229 23.5798ZM7.35996 4.38065H10.4197V6.66975H7.35996V4.38065ZM10.4197 45.4497H7.35996V44.0214H10.4197V45.4497ZM10.4197 42.4979H7.35996V40.0632H10.4197V42.4979ZM10.4197 38.5397H7.35996V36.105H10.4197V38.5397ZM10.4197 34.5817H7.35996V32.147H10.4197V34.5817ZM10.4197 30.6235H7.35996V28.1888H10.4197V30.6235ZM10.4197 26.6654H7.35996V24.2306H10.4197V26.6654ZM7.35996 22.7073V11.954H10.4197V22.7073H7.35996ZM19.8862 18.7569C19.913 18.8225 19.8925 18.8749 19.8708 18.9073C19.8491 18.9397 19.8083 18.9784 19.7375 18.9784H11.9432V11.9539H17.1099L19.8862 18.7569Z" fill="#312C73"/>
</svg>