<svg width="54" height="54" viewBox="0 0 54 54" fill="none" xmlns="http://www.w3.org/2000/svg">
    <g clip-path="url(#clip0_13203_12449)">
        <path d="M6.85938 34.3292C6.85938 35.0435 7.44038 35.6245 8.15463 35.6245H13.5315C14.2458 35.6245 14.8268 35.0435 14.8268 34.3292V25.6574C14.8268 23.4609 13.0397 21.6738 10.8431 21.6738C8.64652 21.6738 6.85948 23.4609 6.85948 25.6574L6.85938 34.3292ZM13.2725 26.4346V30.8943H8.41368V26.4346H13.2725ZM8.41368 34.0702V32.4486H13.2725V34.0702H8.41368ZM10.843 23.228C11.9108 23.228 12.8192 23.9208 13.1442 24.8802H8.54197C8.86682 23.9208 9.77526 23.228 10.843 23.228Z" fill="#509D50"/>
        <path d="M25.4726 17.2754C25.4726 15.1495 23.7431 13.4199 21.6172 13.4199C19.4913 13.4199 17.7617 15.1495 17.7617 17.2754C17.7617 19.4013 19.4913 21.1309 21.6172 21.1309C23.7431 21.1309 25.4726 19.4013 25.4726 17.2754ZM21.6172 19.5765C20.3484 19.5765 19.316 18.5443 19.316 17.2754C19.316 16.0066 20.3484 14.9742 21.6172 14.9742C22.8861 14.9742 23.9183 16.0066 23.9183 17.2754C23.9183 18.5443 22.8861 19.5765 21.6172 19.5765Z" fill="#509D50"/>
        <path d="M20.8475 23.5068C20.4182 23.5068 20.0703 23.8547 20.0703 24.284C20.0703 24.7133 20.4182 25.0611 20.8475 25.0611H22.3866C22.8159 25.0611 23.1637 24.7133 23.1637 24.284C23.1637 23.8547 22.8159 23.5068 22.3866 23.5068H20.8475Z" fill="#509D50"/>
        <path d="M53.2958 48.7337L51.7799 47.2178C52.318 46.5478 52.277 45.5631 51.6557 44.9418L50.4282 43.7144C49.8071 43.0935 48.8229 43.0522 48.1529 43.5897L46.5325 41.9693C48.081 39.7063 48.9203 37.0181 48.9203 34.2477C48.9203 28.5765 45.4512 23.7008 40.5237 21.6299V18.6054H40.8058C41.3851 18.6054 41.931 18.3512 42.3038 17.9078C42.6765 17.4644 42.8331 16.8826 42.7335 16.3121L40.3141 2.4543C40.1502 1.51539 39.3395 0.833984 38.3863 0.833984H4.84702C3.89392 0.833984 3.08329 1.51539 2.91926 2.4543L0.500028 16.312C0.400449 16.8826 0.557123 17.4643 0.929743 17.9077C1.30257 18.3511 1.84844 18.6053 2.42768 18.6053H2.70974V27.5847C2.70974 28.014 3.05759 28.3618 3.48689 28.3618C3.91619 28.3618 4.26405 28.014 4.26405 27.5847V18.6053H10.8673C11.3899 18.6053 11.8813 18.4017 12.251 18.0322L21.4337 8.84966C21.5347 8.74843 21.699 8.74843 21.8 8.84966L25.4265 12.4762C25.7301 12.7796 26.2221 12.7794 26.5256 12.4762C26.8291 12.1726 26.8291 11.6806 26.5256 11.3771L22.8991 7.75056C22.192 7.04366 21.0416 7.04366 20.3345 7.75056L11.1518 16.9331C11.0759 17.0092 10.9747 17.0511 10.8673 17.0511H2.42779C2.26469 17.0511 2.1648 16.9612 2.11962 16.9076C2.07454 16.8539 2.00315 16.7401 2.03123 16.5793L4.45057 2.72164C4.48424 2.52849 4.65107 2.38829 4.84702 2.38829H38.3864C38.5825 2.38829 38.7492 2.52849 38.7829 2.72164L41.2023 16.5793C41.2304 16.7401 41.159 16.8539 41.1139 16.9075C41.0688 16.9612 40.969 17.0511 40.8057 17.0511H32.3662C32.2603 17.0511 32.1565 17.0081 32.0816 16.9331L29.2385 14.09C28.9349 13.7866 28.4429 13.7866 28.1394 14.09C27.8359 14.3936 27.8359 14.8856 28.1394 15.1891L30.9825 18.0322C31.3521 18.4017 31.8436 18.6053 32.3663 18.6053H38.9695V21.0847C37.7838 20.7483 36.533 20.5681 35.2409 20.5681C30.442 20.5681 26.2131 23.0524 23.7707 26.802H18.2734C17.5197 26.802 16.9065 27.4153 16.9065 28.169V38.6518H4.66661C4.44466 38.6518 4.26405 38.4712 4.26405 38.2492V31.4214C4.26405 30.9921 3.91619 30.6443 3.48689 30.6443C3.05759 30.6443 2.70974 30.9921 2.70974 31.4214V38.2494C2.70974 39.3284 3.58761 40.2063 4.66661 40.2063H22.9274C23.4428 41.2717 24.0972 42.2732 24.8813 43.1816C26.9999 45.6359 29.9216 47.2623 33.1082 47.7615C33.5318 47.8279 33.9298 47.538 33.9961 47.1139C34.0626 46.6898 33.7727 46.2923 33.3486 46.2258C27.4191 45.2972 23.1155 40.2597 23.1155 34.2478C23.1155 27.562 28.5549 22.1225 35.2408 22.1225C41.9267 22.1225 47.3661 27.5618 47.3661 34.2477C47.3662 40.2511 42.8909 45.4116 36.9564 46.2517C36.5313 46.3118 36.2356 46.7052 36.2958 47.1301C36.3507 47.5182 36.6833 47.7985 37.0642 47.7985C37.1005 47.7985 37.1373 47.796 37.1742 47.7907C39.2621 47.4952 41.2405 46.7175 42.9622 45.539L44.5782 47.155C43.967 47.8243 43.9831 48.8652 44.6304 49.5126L45.8578 50.7399C46.1803 51.0624 46.6091 51.2401 47.0654 51.2401C47.4955 51.2401 47.9002 51.0805 48.2154 50.7922L49.7265 52.3033C49.8783 52.455 50.0772 52.5308 50.2761 52.5308C50.4749 52.5308 50.6739 52.455 50.8257 52.3033C51.1292 51.9997 51.1292 51.5077 50.8257 51.2042L49.3173 49.6958L50.6884 48.3247L52.1968 49.8331C52.3486 49.9848 52.5475 50.0606 52.7464 50.0606C52.9452 50.0606 53.1442 49.9848 53.296 49.8331C53.5992 49.5292 53.5992 49.0372 53.2958 48.7337ZM18.4606 38.652V28.3566H22.8963C22.0409 30.1417 21.5612 32.1397 21.5612 34.2478C21.5612 35.7578 21.8117 37.2447 22.29 38.652H18.4606ZM45.5371 43.2539C45.5498 43.2394 45.5621 43.2245 45.5747 43.2099L47.046 44.6812L45.6744 46.0529L44.2029 44.5814C44.6749 44.172 45.1211 43.729 45.5371 43.2539ZM47.0653 49.6856C47.0364 49.6856 46.994 49.6778 46.9567 49.6405L45.7293 48.4133C45.6694 48.3534 45.6694 48.2559 45.7293 48.1961L49.112 44.8133C49.1419 44.7833 49.1813 44.7683 49.2207 44.7683C49.26 44.7683 49.2993 44.7833 49.3292 44.8133L50.5566 46.0407C50.6165 46.1004 50.6165 46.198 50.5566 46.2577L47.1738 49.6405C47.1366 49.6778 47.0942 49.6856 47.0653 49.6856Z" fill="#509D50"/>
        <path d="M45.0403 34.2478C45.0403 28.8011 40.6092 24.3701 35.1628 24.3701C29.7162 24.3701 25.2852 28.8012 25.2852 34.2478C25.2852 39.6943 29.7163 44.1253 35.1628 44.1253C40.6092 44.1253 45.0403 39.6942 45.0403 34.2478ZM30.0177 32.7084H36.4139V34.8323C36.4139 34.9752 36.2978 35.0913 36.1549 35.0913H30.2768C30.1339 35.0913 30.0177 34.9752 30.0177 34.8323V32.7084ZM36.4139 26.0186V31.1542H30.0177V27.7124C31.4349 26.5942 33.2216 25.9244 35.1627 25.9244C35.588 25.9244 36.0056 25.9568 36.4139 26.0186ZM35.1627 42.571C30.5732 42.571 26.8394 38.8372 26.8394 34.2478C26.8394 32.4029 27.4437 30.6969 28.4634 29.3155V34.8324C28.4634 35.8322 29.2769 36.6457 30.2768 36.6457H36.1549C37.1547 36.6457 37.9682 35.8322 37.9682 34.8324V26.4122C41.1813 27.5662 43.486 30.6424 43.486 34.2478C43.486 38.8372 39.7522 42.571 35.1627 42.571Z" fill="#509D50"/>
    </g>
    <defs>
        <clipPath id="clip0_13203_12449">
            <rect width="53.0526" height="53.0526" fill="white" transform="translate(0.474609 0.15625)"/>
        </clipPath>
    </defs>
</svg>