<svg width="54" height="54" viewBox="0 0 54 54" fill="none" xmlns="http://www.w3.org/2000/svg">
    <g clip-path="url(#clip0_13203_12371)">
        <path d="M49.4477 7.64403C49.3278 6.46858 48.3438 5.55674 47.159 5.52296C37.1922 5.23884 30.593 1.90999 28.2183 0.491974C27.4686 0.0442385 26.537 0.0444458 25.7876 0.491974C24.3792 1.33304 21.3504 2.91975 16.8887 4.09727C16.4744 4.20669 16.2272 4.63122 16.3365 5.04549C16.4458 5.45975 16.8706 5.70678 17.2847 5.59767C21.9306 4.37145 25.1047 2.70713 26.5832 1.8243C26.8422 1.66949 27.1638 1.66949 27.4229 1.8243C29.9019 3.30459 36.7833 6.77964 47.1148 7.07413C47.5236 7.08573 47.8628 7.39845 47.904 7.80142C48.2476 11.1695 48.7866 19.9816 46.3778 29.0452C45.0265 34.1296 42.9443 38.5261 40.1891 42.1126C36.8736 46.4283 32.535 49.6216 27.2938 51.6038C27.1062 51.6747 26.8998 51.6747 26.712 51.6038C21.471 49.6216 17.1324 46.4283 13.8169 42.1126C11.0617 38.5261 8.97951 34.1296 7.62812 29.0452C5.2192 19.9816 5.75832 11.1693 6.10192 7.80142C6.14306 7.39845 6.48231 7.08573 6.89118 7.07413C9.19172 7.00854 11.4803 6.77716 13.6936 6.3862C14.1156 6.3117 14.3972 5.90914 14.3227 5.48711C14.2482 5.06517 13.8457 4.78333 13.4237 4.85804C11.2848 5.23583 9.07204 5.45954 6.84704 5.52296C5.66217 5.55674 4.67821 6.46858 4.55822 7.64403C4.20602 11.0968 3.65383 20.1328 6.12855 29.4438C7.53289 34.7275 9.70556 39.3081 12.5865 43.058C16.0804 47.6059 20.6483 50.9696 26.163 53.0552C26.4338 53.1578 26.7185 53.209 27.003 53.209C27.2875 53.209 27.5721 53.1578 27.8428 53.0552C33.3577 50.9696 37.9256 47.6059 41.4195 43.058C44.3003 39.3081 46.4731 34.7275 47.8774 29.4438C50.352 20.1328 49.7999 11.0968 49.4477 7.64403Z" fill="#509D50"/>
        <path d="M9.00603 11.0653C8.78346 13.2478 8.21563 20.9849 10.2571 28.9122C11.3787 33.2671 13.1135 37.0342 15.4132 40.1092C18.2108 43.8496 21.8669 46.5925 26.2805 48.2618C26.5138 48.35 26.759 48.3941 27.0042 48.3941C27.2494 48.3941 27.4948 48.35 27.7281 48.2617C32.1414 46.5925 35.7977 43.8497 38.5953 40.1092C40.895 37.0342 42.6298 33.2672 43.7514 28.9122C45.7929 20.9849 45.225 13.2478 45.0024 11.0653C44.899 10.0518 44.0508 9.26561 43.0295 9.23649C35.1447 9.01174 29.9286 6.38077 28.052 5.26024C27.4058 4.87416 26.6028 4.87426 25.9566 5.26014C24.0799 6.38077 18.8638 9.01174 10.979 9.23649C9.95766 9.26561 9.10944 10.0518 9.00603 11.0653ZM26.7522 6.59236C26.83 6.54594 26.9171 6.52273 27.0042 6.52273C27.0914 6.52273 27.1785 6.54594 27.2563 6.59246C29.2373 7.77547 34.7357 10.5524 42.9852 10.7877C43.2306 10.7946 43.4341 10.9816 43.4586 11.2227C43.6747 13.3404 44.2259 20.847 42.2486 28.5251C39.8658 37.7775 34.7957 43.9295 27.1793 46.8101C27.0665 46.853 26.9422 46.8529 26.8293 46.8102C19.2128 43.9294 14.1427 37.7775 11.7599 28.5251C9.78255 20.8471 10.3338 13.3405 10.5498 11.2227C10.5744 10.9817 10.7779 10.7946 11.0234 10.7877C19.2728 10.5524 24.7712 7.77547 26.7522 6.59236Z" fill="#509D50"/>
        <path d="M27.004 36.5693C30.544 36.5693 33.8793 34.8418 35.9262 31.9482C36.1736 31.5984 36.0906 31.1143 35.7408 30.8667C35.3911 30.6192 34.9068 30.7022 34.6594 31.0521C32.9029 33.5351 30.0411 35.0176 27.004 35.0176C21.8373 35.0176 17.6339 30.8142 17.6339 25.6475C17.6339 20.4808 21.8373 16.2774 27.004 16.2774C32.1708 16.2774 36.3741 20.4808 36.3741 25.6475C36.3741 26.4555 36.2714 27.2574 36.0685 28.031C35.9598 28.4455 36.2077 28.8696 36.6222 28.9783C37.0366 29.0866 37.4608 28.839 37.5695 28.4246C37.8059 27.5225 37.9258 26.5882 37.9258 25.6475C37.9258 19.6252 33.0263 14.7256 27.0039 14.7256C20.9815 14.7256 16.082 19.6251 16.082 25.6475C16.082 31.6699 20.9817 36.5693 27.004 36.5693Z" fill="#509D50"/>
        <path d="M31.0719 20.1992C30.424 20.2251 29.825 20.5018 29.3852 20.9781L25.4884 25.1986L24.5235 24.2661C23.5611 23.3361 22.0212 23.3623 21.091 24.3247C20.1609 25.2871 20.187 26.8268 21.1495 27.7572L23.9001 30.4156C24.355 30.8554 24.9542 31.0977 25.5871 31.0977C25.6111 31.0977 25.6351 31.0974 25.6562 31.0966C26.3055 31.0782 26.9304 30.7939 27.3707 30.3168L32.9522 24.2715C33.8603 23.2881 33.7989 21.7492 32.8154 20.8411C32.339 20.4014 31.7191 20.1737 31.0719 20.1992ZM31.812 23.2189C31.812 23.2189 26.2305 29.2643 26.2304 29.2644C25.8978 29.6246 25.3306 29.6403 24.9784 29.2999C24.9768 29.2982 22.2279 26.6415 22.2279 26.6415C21.8805 26.3057 21.8711 25.7502 22.2066 25.4031C22.3782 25.2256 22.6072 25.1363 22.8366 25.1363C23.0559 25.1363 23.2753 25.218 23.4452 25.3819C23.4452 25.3819 24.9786 26.8639 24.9807 26.866C25.2854 27.1605 25.8019 27.1465 26.0899 26.8345C26.0899 26.8345 30.5112 22.046 30.5252 22.0309C31.2746 21.2193 32.5841 22.383 31.812 23.2189Z" fill="#509D50"/>
    </g>
    <defs>
        <clipPath id="clip0_13203_12371">
            <rect width="53.0526" height="53.0526" fill="white" transform="translate(0.474609 0.15625)"/>
        </clipPath>
    </defs>
</svg>