<svg width="50" height="52" viewBox="0 0 50 52" fill="none" xmlns="http://www.w3.org/2000/svg">
    <path d="M24.6249 23.9561C30.2058 23.9561 34.746 19.4158 34.746 13.835C34.746 8.25412 30.2058 3.71387 24.6249 3.71387C19.0442 3.71387 14.5039 8.25422 14.5039 13.835C14.5039 19.4157 19.0443 23.9561 24.6249 23.9561ZM24.6249 5.22999C29.3697 5.22999 33.2299 9.09018 33.2299 13.8351C33.2299 18.5799 29.3697 22.4401 24.6249 22.4401C19.8801 22.4401 16.02 18.5799 16.02 13.8351C16.02 9.09018 19.8801 5.22999 24.6249 5.22999Z" fill="#312C73"/>
    <path d="M24.6258 27.67C32.2544 27.67 38.4608 21.4637 38.4608 13.835C38.4608 6.20638 32.2544 0 24.6258 0C22.7584 0 20.9466 0.36593 19.2404 1.08763C18.8549 1.25064 18.6744 1.69548 18.8376 2.08112C19.0007 2.46675 19.4455 2.64672 19.8311 2.48391C21.3494 1.84173 22.9626 1.51613 24.6259 1.51613C31.4186 1.51613 36.9448 7.04234 36.9448 13.835C36.9448 20.6276 31.4186 26.1539 24.6259 26.1539C17.8333 26.1539 12.307 20.6276 12.307 13.835C12.307 10.0461 14.0133 6.52285 16.9885 4.16873C17.3167 3.90894 17.3724 3.4322 17.1126 3.10385C16.8528 2.7756 16.376 2.71984 16.0477 2.97974C12.7071 5.62321 10.791 9.57978 10.791 13.835C10.7908 21.4637 16.9972 27.67 24.6258 27.67Z" fill="#312C73"/>
    <path d="M25.1526 2.62513C25.1526 2.33436 24.9169 2.09863 24.6261 2.09863C24.3353 2.09863 24.0996 2.33436 24.0996 2.62513C24.0996 2.91591 24.3353 3.15163 24.6261 3.15163C24.9169 3.15163 25.1526 2.91591 25.1526 2.62513Z" fill="#312C73"/>
    <path d="M24.0996 25.0451C24.0996 25.3358 24.3353 25.5716 24.6261 25.5716C24.9169 25.5716 25.1526 25.3358 25.1526 25.0451C25.1526 24.7543 24.9169 24.5186 24.6261 24.5186C24.3353 24.5186 24.0996 24.7543 24.0996 25.0451Z" fill="#312C73"/>
    <path d="M19.284 4.58209C19.5357 4.43675 19.6221 4.1147 19.4766 3.86292C19.3313 3.61115 19.0092 3.52482 18.7575 3.67026C18.5057 3.8157 18.4194 4.13765 18.5648 4.38952C18.7101 4.6412 19.0322 4.72752 19.284 4.58209Z" fill="#312C73"/>
    <path d="M29.9684 23.0872C29.7166 23.2325 29.6303 23.5546 29.7757 23.8064C29.9211 24.0581 30.2431 24.1445 30.4949 23.999C30.7467 23.8536 30.833 23.5316 30.6876 23.2799C30.5422 23.0281 30.2203 22.9419 29.9684 23.0872Z" fill="#312C73"/>
    <path d="M14.6539 8.68556C14.9057 8.83089 15.2278 8.74467 15.3731 8.49289C15.5184 8.24112 15.4322 7.91906 15.1804 7.77373C14.9287 7.62839 14.6066 7.71462 14.4613 7.96639C14.3158 8.21817 14.4022 8.54012 14.6539 8.68556Z" fill="#312C73"/>
    <path d="M34.3585 19.9572C34.6485 19.9363 34.8665 19.6843 34.8456 19.3944C34.8246 19.1045 34.5726 18.8865 34.2827 18.9074C33.9928 18.9283 33.7748 19.1803 33.7957 19.4702C33.8167 19.7601 34.0686 19.9782 34.3585 19.9572Z" fill="#312C73"/>
    <path d="M12.8887 13.8351C12.8887 14.1259 13.1244 14.3616 13.4152 14.3616C13.7059 14.3616 13.9417 14.1259 13.9417 13.8351C13.9417 13.5443 13.7059 13.3086 13.4152 13.3086C13.1244 13.3086 12.8887 13.5443 12.8887 13.8351Z" fill="#312C73"/>
    <path d="M35.837 14.3616C36.1278 14.3616 36.3635 14.1259 36.3635 13.8351C36.3635 13.5443 36.1278 13.3086 35.837 13.3086C35.5463 13.3086 35.3105 13.5443 35.3105 13.8351C35.3105 14.1259 35.5463 14.3616 35.837 14.3616Z" fill="#312C73"/>
    <path d="M14.6539 18.9847C14.4022 19.1301 14.3158 19.4521 14.4613 19.704C14.6066 19.9558 14.9287 20.0421 15.1804 19.8966C15.4322 19.7512 15.5185 19.4293 15.3731 19.1774C15.2278 18.9256 14.9057 18.8393 14.6539 18.9847Z" fill="#312C73"/>
    <path d="M34.5984 8.6856C34.8502 8.54016 34.9365 8.21821 34.7911 7.96644C34.6457 7.71466 34.3237 7.62834 34.0719 7.77377C33.8201 7.91911 33.7338 8.24116 33.8792 8.49294C34.0246 8.74471 34.3465 8.83094 34.5984 8.6856Z" fill="#312C73"/>
    <path d="M18.5647 23.2799C18.4194 23.5317 18.5056 23.8538 18.7574 23.9991C19.0092 24.1444 19.3312 24.0582 19.4766 23.8064C19.622 23.5547 19.5357 23.2326 19.2839 23.0873C19.0321 22.9418 18.7101 23.0281 18.5647 23.2799Z" fill="#312C73"/>
    <path d="M30.6876 4.38948C30.8329 4.13771 30.7467 3.81565 30.4949 3.67021C30.2431 3.52488 29.9211 3.6111 29.7757 3.86288C29.6303 4.11465 29.7166 4.43671 29.9684 4.58204C30.2202 4.72758 30.5421 4.64125 30.6876 4.38948Z" fill="#312C73"/>
    <path d="M21.6791 18.4508C22.5109 18.995 23.0886 19.171 23.8089 19.2217V19.8489C23.8089 20.2677 24.1482 20.607 24.5669 20.607C24.9857 20.607 25.325 20.2677 25.325 19.8489V19.1529C26.754 18.8258 27.6713 17.621 27.8711 16.4329C28.1266 14.9126 27.3321 13.5911 25.8468 13.0661C25.6752 13.0054 25.5 12.9422 25.325 12.8765V9.93459C25.6808 10.0416 25.9057 10.2101 25.9609 10.2548L26.4016 10.7257C26.6875 11.0312 27.1671 11.0469 27.4731 10.761C27.7787 10.4749 27.7945 9.99512 27.5085 9.68952L27.041 9.19013C27.0283 9.17662 27.0151 9.16363 27.0015 9.15093C26.9636 9.11609 26.3428 8.5574 25.325 8.38017V7.82056C25.325 7.40182 24.9857 7.0625 24.5669 7.0625C24.1482 7.0625 23.8089 7.40182 23.8089 7.82056V8.43522C23.7324 8.4536 23.6552 8.47361 23.5766 8.49727C22.5945 8.79323 21.8608 9.63264 21.6619 10.6881C21.48 11.6535 21.7914 12.5862 22.4745 13.1219C22.8166 13.3901 23.2381 13.636 23.8089 13.8937V17.7012C23.3481 17.6544 23.0296 17.5228 22.5091 17.1823C22.1587 16.9531 21.689 17.0512 21.4597 17.4017C21.2305 17.7517 21.3287 18.2216 21.6791 18.4508ZM25.3249 14.4896C25.3306 14.4916 25.3358 14.4935 25.3415 14.4956C26.4957 14.9035 26.425 15.8891 26.3759 16.1815C26.2852 16.721 25.9279 17.291 25.3249 17.562V14.4896ZM23.4101 11.9289C23.1777 11.7465 23.0762 11.3696 23.1518 10.9687C23.2148 10.6338 23.4201 10.2383 23.8089 10.0334V12.1945C23.6614 12.1084 23.5264 12.0201 23.4101 11.9289Z" fill="#312C73"/>
    <path d="M41.2908 22.579L46.877 22.1205L42.8603 26.8842C42.5904 27.2043 42.6311 27.6825 42.9511 27.9523C43.0934 28.0724 43.2669 28.1309 43.4394 28.1309C43.6551 28.1309 43.8693 28.0393 44.0193 27.8615L47.8024 23.3749L47.8072 28.8693C47.8076 29.2877 48.147 29.6266 48.5653 29.6266H48.566C48.9846 29.6262 49.3238 29.2866 49.3233 28.8678L49.3165 21.2211C49.3163 21.0093 49.2276 20.8074 49.0719 20.664C48.9162 20.5207 48.7072 20.4495 48.4965 20.4663L41.1668 21.0678C40.7494 21.1021 40.439 21.4681 40.4733 21.8853C40.5076 22.3027 40.8743 22.6134 41.2908 22.579Z" fill="#312C73"/>
    <path d="M48.5658 50.4841H3.22142L22.6657 30.4098L34.3093 37.5782C34.8882 37.9347 35.6266 37.8161 36.0649 37.2963L41.7676 30.5328C42.0376 30.2127 41.9969 29.7344 41.6768 29.4646C41.3566 29.1946 40.8786 29.2355 40.6086 29.5554L34.9913 36.2175L23.3557 29.0542C22.8159 28.7218 22.1039 28.8108 21.6628 29.2662L2.18995 49.3701V12.3313C2.18995 11.9126 1.85063 11.5732 1.43189 11.5732C1.01315 11.5732 0.673828 11.9126 0.673828 12.3313V51.2422C0.673828 51.661 1.01315 52.0003 1.43189 52.0003H48.5658C48.9846 52.0003 49.3239 51.661 49.3239 51.2422C49.3239 50.8235 48.9846 50.4841 48.5658 50.4841Z" fill="#312C73"/>
</svg>