<svg width="50" height="52" viewBox="0 0 50 52" fill="none" xmlns="http://www.w3.org/2000/svg">
    <path d="M20.2969 35.6798V24.5801H29.7056V37.3607" stroke="#312C73" stroke-width="1.52344" stroke-miterlimit="10" stroke-linecap="round" stroke-linejoin="round"/>
    <path d="M9.32031 37.3308V16.6299" stroke="#312C73" stroke-width="1.52344" stroke-miterlimit="10" stroke-linecap="round" stroke-linejoin="round"/>
    <path d="M40.6816 22.931V16.6318" stroke="#312C73" stroke-width="1.52344" stroke-miterlimit="10" stroke-linecap="round" stroke-linejoin="round"/>
    <path d="M40.6816 36.5784V26.2305" stroke="#312C73" stroke-width="1.52344" stroke-miterlimit="10" stroke-linecap="round" stroke-linejoin="round"/>
    <path d="M22.5449 43.3474H32.2911C33.5583 43.3474 34.8053 42.4163 35.1663 41.1924" stroke="#312C73" stroke-width="1.52344" stroke-miterlimit="10" stroke-linecap="round" stroke-linejoin="round"/>
    <path d="M6.19336 49.0976H10.1842L15.8564 50.803C16.8156 51.0917 17.8131 51.2382 18.8147 51.2382H31.188C32.4248 51.2382 33.6202 50.7889 34.5501 49.9741L47.5302 38.6064C48.6835 37.5973 48.8706 35.7005 47.8704 34.482C46.8214 33.2018 44.9293 33.0241 43.6602 34.0862L35.165 41.1921C35.2513 40.9049 35.2939 40.5992 35.2876 40.2825C35.2551 38.6495 33.8811 37.3605 32.2478 37.3605H24.5929C23.3248 37.3605 22.0799 36.9677 21.0702 36.2004C19.7294 35.1816 18.0574 34.5759 16.2431 34.5759C14.2194 34.5759 12.3719 35.3293 10.9645 36.5704C10.3899 37.077 9.65278 37.3606 8.8868 37.3606H6.19336" stroke="#312C73" stroke-width="1.52344" stroke-miterlimit="10" stroke-linecap="round" stroke-linejoin="round"/>
    <path d="M1.48047 44.9979V51.2386H6.19358V35.5576H1.48047V41.6974" stroke="#312C73" stroke-width="1.52344" stroke-miterlimit="10" stroke-linecap="round" stroke-linejoin="round"/>
    <path d="M35.1895 8.31473V4.19434H40.2831V12.3049" stroke="#312C73" stroke-width="1.52344" stroke-miterlimit="10" stroke-linecap="round" stroke-linejoin="round"/>
    <path d="M37.7374 24.5801H32.8418V30.8525H37.7374V24.5801Z" stroke="#312C73" stroke-width="1.52344" stroke-miterlimit="10" stroke-linecap="round" stroke-linejoin="round"/>
    <path d="M17.3507 24.5801H12.4551V30.8525H17.3507V24.5801Z" stroke="#312C73" stroke-width="1.52344" stroke-miterlimit="10" stroke-linecap="round" stroke-linejoin="round"/>
    <path d="M41.5577 1.05859H33.916V4.19484H41.5577V1.05859Z" stroke="#312C73" stroke-width="1.52344" stroke-miterlimit="10" stroke-linecap="round" stroke-linejoin="round"/>
    <path d="M29.7055 12.0352H20.2969V19.6867H29.7055V12.0352Z" stroke="#312C73" stroke-width="1.52344" stroke-miterlimit="10" stroke-linecap="round" stroke-linejoin="round"/>
    <path d="M25 12.0352V19.6867" stroke="#312C73" stroke-width="1.52344" stroke-miterlimit="10" stroke-linecap="round" stroke-linejoin="round"/>
    <path d="M29.7055 15.8613H20.2969" stroke="#312C73" stroke-width="1.52344" stroke-miterlimit="10" stroke-linecap="round" stroke-linejoin="round"/>
    <path d="M15.675 7.63846L24.0269 1.09794C24.5994 0.649645 25.403 0.649645 25.9755 1.09794L46.3604 17.0636C47.048 17.6017 47.1682 18.5952 46.631 19.2818C46.319 19.6806 45.3861 20.2036 44.4118 19.5524L25.0011 4.34906L5.58757 19.5525C4.90101 20.0906 3.90753 19.9695 3.36935 19.2819C2.83117 18.5953 2.95233 17.6018 3.63889 17.0637L13.0761 9.67296" stroke="#312C73" stroke-width="1.52344" stroke-miterlimit="10" stroke-linecap="round" stroke-linejoin="round"/>
</svg>