<svg width="54" height="54" viewBox="0 0 54 54" fill="none" xmlns="http://www.w3.org/2000/svg">
    <g clip-path="url(#clip0_13203_12436)">
        <path d="M11.8557 14.1755C11.5474 14.2875 11.3427 14.576 11.3427 14.8987V24.659C11.3427 25.0849 11.6945 25.4301 12.1285 25.4301C12.5624 25.4301 12.9142 25.0849 12.9142 24.659V15.4164C15.95 14.0859 17.9534 11.1021 17.9534 7.82846C17.9534 5.08858 16.5635 2.52216 14.2344 0.962908C13.8941 0.735673 12.8589 0.0442271 11.9951 0.533928C11.15 1.01316 11.3266 1.84035 11.2777 2.68888C11.2747 2.74027 11.2861 7.33596 11.2861 7.33596C11.2861 8.48706 10.379 9.45216 9.21142 9.55557C8.04561 9.45195 7.13998 8.48685 7.13998 7.33575C7.13998 7.33575 7.15138 2.74007 7.14838 2.68867C7.10424 1.93081 7.27603 1.01306 6.43092 0.53372C5.56747 0.0442271 4.5318 0.735569 4.19131 0.963012C1.8628 2.51967 0.472656 5.08609 0.472656 7.82835C0.472656 11.102 2.47601 14.0858 5.51183 15.4163V37.9466C2.47601 39.2773 0.472656 42.2611 0.472656 45.5347C0.472656 48.2769 1.8628 50.8435 4.191 52.3998C4.53139 52.6276 5.56747 53.3208 6.43092 52.8312C7.27603 52.3525 7.13014 51.7518 7.14838 50.6772C7.14921 50.6257 7.1406 50.5834 7.13998 50.5561V46.0301C7.13998 44.8774 8.04571 43.9111 9.21163 43.8076C10.3792 43.9111 11.2862 44.8774 11.2862 46.0301C11.2862 46.0301 11.2756 50.6258 11.2778 50.6773C11.3137 51.5381 11.1501 52.3526 11.9952 52.8313C12.2119 52.9541 12.4391 53.0024 12.6638 53.0024C13.3346 53.0023 13.9799 52.5706 14.2346 52.4001C16.5632 50.8445 17.9535 48.278 17.9535 45.5347C17.9535 42.2611 15.9501 39.2773 12.9143 37.9467V28.2175C12.9143 27.7916 12.5625 27.4463 12.1286 27.4463C11.6946 27.4463 11.3428 27.7916 11.3428 28.2175V38.4645C11.3428 38.787 11.5475 39.0755 11.8558 39.1876C14.563 40.1716 16.382 42.7224 16.382 45.5348C16.382 47.7672 15.2486 49.8572 13.3498 51.1257C13.1119 51.285 12.9442 51.3685 12.8346 51.4122L12.8579 46.0302C12.8579 44.0516 11.2793 42.3976 9.26426 42.2649C9.22924 42.2626 9.19411 42.2626 9.15888 42.2649C7.14558 42.3977 5.56851 44.0518 5.56851 46.0302L5.59172 51.4121C5.48219 51.3684 5.31433 51.2848 5.07622 51.1255C3.17772 49.8563 2.04434 47.7663 2.04434 45.5347C2.04434 42.7222 3.86326 40.1715 6.5706 39.1875C6.87886 39.0755 7.08351 38.787 7.08351 38.4644V14.8985C7.08351 14.576 6.87886 14.2875 6.5706 14.1754C3.86336 13.1914 2.04434 10.6407 2.04434 7.82825C2.04434 5.59662 3.17782 3.50664 5.0759 2.23773C5.31433 2.07846 5.48209 1.99526 5.59151 1.95174C5.6055 2.091 5.56851 7.33565 5.56851 7.33565C5.56851 9.31248 7.14558 10.9652 9.15888 11.098C9.19401 11.1003 9.22914 11.1003 9.26426 11.098C11.2794 10.9653 12.8579 9.31269 12.8579 7.33565C12.8579 7.33565 12.8209 2.091 12.8349 1.95174C12.9442 1.99515 13.1117 2.07826 13.3497 2.2371C15.2485 3.5084 16.382 5.59848 16.382 7.82815C16.3819 10.6408 14.5629 13.1915 11.8557 14.1755Z" fill="#509D50"/>
        <path d="M47.2029 25.4675H47.2038C47.6374 25.4675 47.9891 25.1229 47.9896 24.6973L47.9979 18.0987C49.5393 17.406 50.8581 16.3253 51.8344 14.9494C52.941 13.39 53.5258 11.5584 53.5258 9.65221C53.5258 4.52973 49.2691 0.362305 44.0368 0.362305C38.8062 0.362305 34.5508 4.52973 34.5508 9.65221C34.5508 11.5588 35.1352 13.3905 36.2409 14.9492C37.2169 16.3252 38.5358 17.4059 40.078 18.0985V39.9389C38.0326 41.2461 36.78 43.4882 36.78 45.8954C36.78 49.8142 40.0354 53.0024 44.0367 53.0024C48.1235 53.0024 51.2933 49.182 51.2933 45.8954C51.2933 42.532 49.6061 40.9434 47.9898 39.9694L47.9984 28.2173C47.9987 27.7914 47.6471 27.446 47.2132 27.4457C47.213 27.4457 47.2128 27.4457 47.2126 27.4457C46.7789 27.4457 46.4272 27.7906 46.4269 28.2163L46.418 40.4101C46.4178 40.6887 46.5708 40.9459 46.8183 41.0826C48.3263 41.9159 49.7219 43.0757 49.7219 45.8956C49.7219 48.4161 47.186 51.4603 44.0368 51.4603C40.902 51.4603 38.3517 48.9639 38.3517 45.8956C38.3517 43.8909 39.4621 42.0322 41.2494 41.0447C41.4967 40.9081 41.6497 40.6512 41.6497 40.3728V17.5881C41.6497 17.2705 41.4512 16.9855 41.1499 16.8699C38.0958 15.6991 36.1225 12.8659 36.1225 9.65221C36.1225 5.38013 39.6729 1.90456 44.0369 1.90456C48.4027 1.90456 51.9543 5.38013 51.9543 9.65221C51.9543 12.8649 49.9809 15.6979 46.9267 16.87C46.6256 16.9854 46.4274 17.27 46.427 17.5871L46.4181 24.6953C46.4176 25.1213 46.7689 25.4669 47.2029 25.4675Z" fill="#509D50"/>
        <path d="M25.1412 45.2512C25.5753 45.2512 25.9269 44.9059 25.9269 44.4801V36.6549C25.9269 36.229 25.5752 35.8838 25.1412 35.8838C24.7071 35.8838 24.3555 36.229 24.3555 36.6549V44.4801C24.3555 44.9059 24.7073 45.2512 25.1412 45.2512Z" fill="#509D50"/>
        <path d="M28.856 45.2512C29.2901 45.2512 29.6418 44.9059 29.6418 44.4801V36.6549C29.6418 36.229 29.29 35.8838 28.856 35.8838C28.422 35.8838 28.0703 36.229 28.0703 36.6549V44.4801C28.0702 44.9059 28.422 45.2512 28.856 45.2512Z" fill="#509D50"/>
        <path d="M33.0578 29.5459C33.0578 28.4651 32.1605 27.5858 31.0577 27.5858H29.9534V10.742C30.9115 10.1413 31.5072 9.09951 31.5072 7.96479V1.75131C31.5072 0.985466 30.8716 0.362305 30.0904 0.362305H23.9023C23.1211 0.362305 22.4856 0.985362 22.4856 1.75131V7.96479C22.4856 9.09827 23.0812 10.1398 24.0392 10.7415V27.5858H22.938C21.8351 27.5858 20.9378 28.4651 20.9378 29.5459C20.9378 29.5459 20.9355 47.7204 20.9337 47.8037C20.9249 48.1671 20.9166 48.5104 21.0751 49.0003L22.011 51.9247C22.3286 52.8976 23.0273 53.0026 23.3129 53.0026H30.6798C30.9665 53.0026 31.6675 52.8974 31.9831 51.9204L32.9169 49.0026C33.0771 48.5075 33.0696 48.1616 33.0616 47.7955C33.0598 47.7146 33.0578 29.5459 33.0578 29.5459ZM24.057 1.90456H29.9356V3.68773H24.057V1.90456ZM25.1395 9.57512C24.482 9.29318 24.057 8.661 24.057 7.96479V5.22999H29.9356V7.96489C29.9356 8.66204 29.511 9.29401 28.8538 9.57491C28.5672 9.69739 28.3819 9.97499 28.3819 10.2819V27.5858H25.6108V10.2818C25.6108 9.9753 25.4257 9.69791 25.1395 9.57512ZM30.4843 51.4563C30.4839 51.4577 30.4834 51.459 30.4829 51.4604H23.5096C23.5094 51.4598 23.5091 51.459 23.5089 51.4584L22.7197 48.9924H31.2728L30.4843 51.4563ZM31.4863 47.4502H22.5093V33.6831H31.4863V47.4502ZM31.4863 32.1409H22.5093V29.5459C22.5093 29.3155 22.7015 29.128 22.9378 29.128H24.8247H24.8248H29.1675H29.1676H31.0576C31.2899 29.128 31.4862 29.3194 31.4862 29.5459L31.4863 32.1409Z" fill="#509D50"/>
        <path d="M48.719 12.89C49.0944 12.6882 49.2507 12.422 49.2415 12.0001C49.2411 11.9796 49.2405 11.9553 49.2405 11.926C49.2405 11.926 49.2411 7.32591 49.2415 7.3054C49.2508 6.87994 49.0925 6.61333 48.7124 6.41386C48.6936 6.40402 44.5793 4.0782 44.5613 4.06732C44.199 3.84858 43.8758 3.84869 43.5138 4.06743C43.4956 4.07841 39.3825 6.4035 39.3639 6.41335C38.9833 6.61385 38.8256 6.87994 38.8365 7.30291C38.837 7.32384 38.837 11.9816 38.8365 12.0024C38.8257 12.4218 38.9814 12.6873 39.3575 12.8904C39.3762 12.9005 43.5022 15.2328 43.5203 15.2437C43.7017 15.3507 43.8696 15.4043 44.0375 15.4043C44.2055 15.4043 44.3734 15.3508 44.5546 15.2438C44.5729 15.233 48.65 12.9278 48.65 12.9278C48.6772 12.9124 48.7 12.9002 48.719 12.89ZM47.6689 11.7029L44.0376 13.7557L40.4092 11.7046V7.60403L44.0376 5.5529L47.6689 7.60568V11.7029Z" fill="#509D50"/>
        <path d="M40.8359 45.8964C40.8359 47.6248 42.2714 49.031 44.0357 49.031C45.8 49.031 47.2354 47.6248 47.2354 45.8964C47.2354 44.1679 45.8 42.7617 44.0357 42.7617C42.2714 42.7617 40.8359 44.1679 40.8359 45.8964ZM45.6638 45.8964C45.6638 46.7744 44.9334 47.4889 44.0357 47.4889C43.1379 47.4889 42.4075 46.7745 42.4075 45.8964C42.4075 45.0182 43.1379 44.3039 44.0357 44.3039C44.9334 44.3039 45.6638 45.0182 45.6638 45.8964Z" fill="#509D50"/>
    </g>
    <defs>
        <clipPath id="clip0_13203_12436">
            <rect width="53.0526" height="53.0526" fill="white" transform="translate(0.474609 0.15625)"/>
        </clipPath>
    </defs>
</svg>