<svg width="68" height="57" viewBox="0 0 68 57" fill="none" xmlns="http://www.w3.org/2000/svg">
    <path d="M26.5142 36.9621C26.324 36.446 25.7521 36.1817 25.2351 36.3718C24.7188 36.562 24.4545 37.1345 24.6447 37.6508C25.0289 38.6933 25.2235 39.7924 25.2235 40.9176C25.2235 46.1384 20.9762 50.3858 15.7553 50.3858C10.5345 50.3858 6.28711 46.1384 6.28711 40.9176C6.28711 35.6967 10.5345 31.4493 15.7553 31.4493C18.2421 31.4493 20.5909 32.4065 22.3691 34.1445C22.7625 34.5291 23.3932 34.5217 23.7776 34.1284C24.1622 33.7351 24.155 33.1043 23.7615 32.7198C21.609 30.6158 18.7656 29.457 15.7553 29.457C9.43609 29.457 4.29492 34.5981 4.29492 40.9174C4.29492 47.2368 9.43609 52.3778 15.7553 52.3778C22.0745 52.3778 27.2157 47.2368 27.2157 40.9174C27.2157 39.5566 26.9797 38.2258 26.5142 36.9621Z" fill="#D90F17"/>
    <path d="M65.0699 31.7768L58.8766 19.7678C58.6244 19.2788 58.0238 19.0868 57.5346 19.3389C57.0456 19.5911 56.8537 20.1918 57.1058 20.6809L60.6844 27.6199C58.2435 26.0655 55.3481 25.1637 52.246 25.1637C51.5772 25.1637 50.9179 25.2059 50.2707 25.2872C45.5012 24.3838 41.1016 23.8313 37.1423 23.6355V16.4791C37.1423 14.2429 38.0133 12.1398 39.5946 10.5574C41.1757 8.9761 43.2788 8.10524 45.5162 8.10524C48.6642 8.10524 51.516 9.84296 52.9582 12.6404L54.9743 16.5504C55.2262 17.0395 55.8271 17.2313 56.3162 16.9792C56.8052 16.7272 56.9971 16.1265 56.7451 15.6374L54.729 11.7274C54.1596 10.6231 53.4123 9.65304 52.5328 8.84275L50.3596 4.62954C49.0145 2.02084 46.3553 0.400391 43.4196 0.400391C41.3348 0.400391 39.3739 1.21241 37.8971 2.68756C36.4226 4.16337 35.6107 6.12435 35.6107 8.20924V13.4106C35.3081 14.3918 35.1502 15.4233 35.1502 16.4791V23.5663C34.7626 23.5589 34.378 23.5539 34 23.5539C33.622 23.5539 33.2374 23.5589 32.8498 23.5663V16.4791C32.8498 15.4232 32.6919 14.3918 32.3892 13.4106V8.20924C32.3892 6.12435 31.5774 4.16337 30.1022 2.68676C28.6261 1.21227 26.6652 0.400391 24.5804 0.400391C21.6447 0.400391 18.9855 2.02084 17.6404 4.62941L15.4672 8.84275C14.5877 9.65304 13.8404 10.6232 13.271 11.7274L11.6972 14.7795C11.4451 15.2685 11.637 15.8692 12.126 16.1214C12.6151 16.3735 13.2159 16.1816 13.468 15.6926L15.0418 12.6405C16.484 9.84323 19.3358 8.10538 22.4838 8.10538C24.7212 8.10538 26.8243 8.97623 28.4051 10.5572C29.9867 12.14 30.8577 14.2429 30.8577 16.4792V23.6357C26.8984 23.8314 22.4988 24.3841 17.7293 25.2873C17.0821 25.2061 16.4229 25.1638 15.754 25.1638C12.6521 25.1638 9.75707 26.0653 7.31624 27.6195L11.3377 19.823C11.5897 19.3341 11.3978 18.7333 10.909 18.4811C10.4198 18.229 9.81936 18.4208 9.56701 18.9098L2.93011 31.777C1.08627 34.3563 0 37.5123 0 40.9176C0 49.6044 7.06722 56.6716 15.754 56.6716C22.1752 56.6716 27.7107 52.8094 30.1616 47.2864C31.3107 47.9805 32.6347 48.3535 34 48.3535C35.3653 48.3535 36.6893 47.9805 37.8384 47.2864C40.2893 52.8094 45.8248 56.6716 52.246 56.6716C60.9328 56.6716 68 49.6044 68 40.9176C68 37.5123 66.9137 34.3562 65.0699 31.7768ZM37.6029 8.20924C37.6029 6.65613 38.208 5.19519 39.3057 4.09616C40.4055 2.99754 41.8665 2.39245 43.4196 2.39245C45.6064 2.39245 47.5871 3.59945 48.5889 5.54249L49.2372 6.79943C48.0714 6.35305 46.8144 6.11306 45.5162 6.11306C42.7466 6.11306 40.1434 7.19109 38.1856 9.14902C37.9809 9.35381 37.7882 9.56724 37.6029 9.78559V8.20924ZM22.4838 6.11292C21.1856 6.11292 19.9286 6.35291 18.7628 6.7993L19.4111 5.54236C20.4129 3.59945 22.3936 2.39245 24.5804 2.39245C26.1334 2.39245 27.5943 2.99754 28.6936 4.09537C29.7921 5.19506 30.3971 6.65613 30.3971 8.20924V9.78559C30.2118 9.56711 30.0189 9.35368 29.8141 9.14875C27.8566 7.19109 25.2534 6.11292 22.4838 6.11292ZM34 25.5459C37.5195 25.5459 41.4767 25.8807 45.8041 26.542C40.6072 28.88 36.8986 33.9559 36.5245 39.9215H31.4754C31.1012 33.9559 27.3927 28.88 22.1958 26.542C26.5233 25.8807 30.4805 25.5459 34 25.5459ZM15.754 54.6794C8.16571 54.6794 1.99219 48.5059 1.99219 40.9176C1.99219 33.3294 8.16571 27.1559 15.754 27.1559C23.3422 27.1559 29.5156 33.3294 29.5156 40.9176C29.5156 48.5059 23.3422 54.6794 15.754 54.6794ZM34 46.3612C32.869 46.3612 31.7778 46.0111 30.8668 45.3674C31.193 44.2615 31.4006 43.1053 31.4754 41.9136H36.5245C36.5993 43.1053 36.8069 44.2615 37.133 45.3674C36.2222 46.0111 35.131 46.3612 34 46.3612ZM52.246 54.6794C44.6578 54.6794 38.4844 48.5059 38.4844 40.9176C38.4844 33.3294 44.6578 27.1559 52.246 27.1559C59.8343 27.1559 66.0078 33.3294 66.0078 40.9176C66.0078 48.5059 59.8343 54.6794 52.246 54.6794Z" fill="#D90F17"/>
    <path d="M52.2458 29.457C45.9263 29.457 40.7852 34.5982 40.7852 40.9177C40.7852 47.2372 45.9263 52.3785 52.2458 52.3785C58.5653 52.3785 63.7066 47.2372 63.7066 40.9177C63.7066 34.5982 58.5653 29.457 52.2458 29.457ZM52.2458 50.3864C47.0248 50.3864 42.7773 46.1388 42.7773 40.9178C42.7773 35.6968 47.0248 31.4494 52.2458 31.4494C57.4669 31.4494 61.7144 35.6968 61.7144 40.9178C61.7144 46.1388 57.4668 50.3864 52.2458 50.3864Z" fill="#D90F17"/>
</svg>
