<svg width="1438" height="374" viewBox="0 0 1438 374" fill="none" xmlns="http://www.w3.org/2000/svg">
    <path d="M0.25 338.183H173.25L315.25 196.183H1175.25L1328.25 43.1826H1437.75" stroke="#312C73" stroke-width="4" stroke-dasharray="16 16"/>
    <g filter="url(#filter0_i_5395_2313)">
        <rect x="1303" y="0.419922" width="72" height="72" rx="36" fill="#312C73"/>
        <rect x="1304" y="1.41992" width="70" height="70" rx="35" stroke="#312C73" stroke-width="2"/>
        <g clip-path="url(#clip0_5395_2313)">
            <mask id="mask0_5395_2313" style="mask-type:luminance" maskUnits="userSpaceOnUse" x="1315" y="12" width="48" height="49">
                <path d="M1315 12.4199H1363V60.4199H1315V12.4199Z" fill="white"/>
            </mask>
            <g mask="url(#mask0_5395_2313)">
                <path d="M1345.47 48.1525L1337.91 57.7957C1337.36 58.4904 1336.36 58.6134 1335.66 58.0706L1333.36 56.2746" stroke="white" stroke-width="1.40625" stroke-miterlimit="10" stroke-linecap="round" stroke-linejoin="round"/>
                <path d="M1330.41 31.9717L1344.71 13.7366C1345.26 13.042 1346.26 12.919 1346.96 13.4618L1361.65 24.9322C1362.35 25.4757 1362.47 26.481 1361.92 27.1767L1358.61 31.4053" stroke="white" stroke-width="1.40625" stroke-miterlimit="10" stroke-linecap="round" stroke-linejoin="round"/>
                <path d="M1342.57 23.8301L1348.8 19.6593C1349.53 19.168 1350.53 19.3635 1351.02 20.0961L1361.4 35.5642C1361.89 36.2976 1361.69 37.2913 1360.96 37.7832L1328.6 59.446C1327.87 59.9372 1326.88 59.7417 1326.38 59.0092L1316 43.5411C1315.51 42.8077 1315.71 41.8139 1316.44 41.322L1339.3 26.017" stroke="white" stroke-width="1.40625" stroke-miterlimit="10" stroke-linecap="round" stroke-linejoin="round"/>
                <path d="M1337.07 47.9199C1334.92 47.5011 1332.93 46.2604 1331.61 44.2987C1328.99 40.3878 1330.03 35.0925 1333.95 32.4714C1337.86 29.8503 1343.17 30.896 1345.79 34.8068C1348.41 38.7178 1347.37 44.013 1343.45 46.6341C1342.69 47.1436 1341.88 47.5145 1341.04 47.7528" stroke="white" stroke-width="1.40625" stroke-miterlimit="10" stroke-linecap="round" stroke-linejoin="round"/>
                <path d="M1320.87 38.3573C1323 41.5343 1322.15 45.8357 1318.97 47.9648L1316 43.5387C1315.51 42.8063 1315.71 41.8137 1316.44 41.3218L1320.87 38.3573Z" stroke="white" stroke-width="1.40625" stroke-miterlimit="10" stroke-linecap="round" stroke-linejoin="round"/>
                <path d="M1323.42 54.5948C1326.61 52.4611 1330.92 53.3013 1333.04 56.4716L1328.6 59.4443C1327.87 59.9362 1326.88 59.7413 1326.38 59.0088L1323.42 54.5948Z" stroke="white" stroke-width="1.40625" stroke-miterlimit="10" stroke-linecap="round" stroke-linejoin="round"/>
                <path d="M1356.53 40.751C1354.4 37.574 1355.25 33.2725 1358.43 31.1434L1361.4 35.5695C1361.89 36.302 1361.7 37.2945 1360.96 37.7864L1356.53 40.751Z" stroke="white" stroke-width="1.40625" stroke-miterlimit="10" stroke-linecap="round" stroke-linejoin="round"/>
                <path d="M1353.98 24.5136C1350.8 26.6473 1346.49 25.8071 1344.36 22.6368L1348.8 19.6641C1349.53 19.1722 1350.53 19.3671 1351.02 20.0996L1353.98 24.5136Z" stroke="white" stroke-width="1.40625" stroke-miterlimit="10" stroke-linecap="round" stroke-linejoin="round"/>
                <path d="M1349.41 32.3838L1352.72 30.1677" stroke="white" stroke-width="1.40625" stroke-miterlimit="10" stroke-linecap="round" stroke-linejoin="round"/>
                <path d="M1324.68 48.9375L1327.99 46.7214" stroke="white" stroke-width="1.40625" stroke-miterlimit="10" stroke-linecap="round" stroke-linejoin="round"/>
                <path d="M1337.91 35.16C1337.91 35.16 1336.54 34.9489 1335.5 36.2117C1334.55 37.3712 1335.34 39.2009 1336.58 39.2922C1337.29 39.3446 1338.2 39.1745 1339.37 38.8745C1341.98 38.203 1343.2 41.7037 1341.05 43.1601C1340.22 43.7284 1339.79 43.9383 1338.73 43.9512" stroke="white" stroke-width="1.40625" stroke-miterlimit="10" stroke-linecap="round" stroke-linejoin="round"/>
                <path d="M1335.37 34.6843L1341.78 44.2461" stroke="white" stroke-width="1.40625" stroke-miterlimit="10" stroke-linecap="round" stroke-linejoin="round"/>
            </g>
        </g>
    </g>
    <g filter="url(#filter1_i_5395_2313)">
        <rect x="64" y="302" width="72" height="72" rx="36" fill="#312C73"/>
        <rect x="65" y="303" width="70" height="70" rx="35" stroke="#312C73" stroke-width="2"/>
        <g clip-path="url(#clip1_5395_2313)">
            <path d="M95.9586 324.862H88.8457C88.1993 324.862 87.6738 325.388 87.6738 326.034V337.653C87.6738 338.299 88.1993 338.825 88.8457 338.825H95.9586C96.605 338.825 97.1305 338.299 97.1305 337.653V326.034C97.1305 325.388 96.605 324.862 95.9586 324.862ZM91.6988 337.419H89.0801V334.543H91.6988V337.419ZM91.6988 333.137H89.0801V330.55H91.6988V333.137ZM91.6988 329.144H89.0801V326.269H91.6988V329.144ZM95.7242 337.419H93.1051V334.543H95.7242V337.419ZM95.7242 333.137H93.1051V330.55H95.7242V333.137ZM95.7242 329.144H93.1051V326.269H95.7242V329.144Z" fill="white"/>
            <path d="M105.389 352.935C105 352.935 104.686 353.25 104.686 353.638V355.326C104.686 355.714 105 356.029 105.389 356.029C105.777 356.029 106.092 355.714 106.092 355.326V353.638C106.092 353.25 105.777 352.935 105.389 352.935Z" fill="white"/>
            <path d="M123.993 345.833C123.961 345.586 123.834 345.366 123.638 345.214L108.741 333.688C108.411 333.433 108.016 333.298 107.6 333.298C107.182 333.298 106.788 333.433 106.457 333.689L104.204 335.432V333.412C104.204 333.024 103.889 332.709 103.501 332.709C103.112 332.709 102.798 333.024 102.798 333.412V336.52L91.5617 345.214C91.3661 345.365 91.2361 345.592 91.2054 345.836C91.1735 346.083 91.2398 346.329 91.3918 346.527L92.5318 348.01C92.7109 348.241 92.9811 348.374 93.2737 348.374C93.4795 348.374 93.6828 348.305 93.8461 348.179L107.6 337.537L117.995 345.581V360.231H112.332V358.912C112.332 358.524 112.017 358.209 111.629 358.209C111.24 358.209 110.926 358.524 110.926 358.912V360.231H104.272V349.459H110.926V358.912C110.926 359.301 111.24 359.616 111.629 359.616C112.017 359.616 112.332 359.301 112.332 358.912V349.225C112.332 348.579 111.806 348.053 111.16 348.053H104.038C103.392 348.053 102.866 348.579 102.866 349.225V360.231H97.5229V358.313C97.5229 357.667 96.9974 357.141 96.351 357.141H95.6779C95.7339 356.861 95.7643 356.572 95.7643 356.276C95.7643 353.843 93.7842 351.863 91.3508 351.863C90.0298 351.863 88.7939 352.469 87.9673 353.452C87.6546 353.353 87.3221 353.3 86.9771 353.3C86.7237 353.3 86.4747 353.328 86.2326 353.384C85.4668 352.072 84.0379 351.229 82.4932 351.229C82.3288 351.229 82.1662 351.239 82.0058 351.258V327.721L92.4018 319.677L102.798 327.721C102.798 327.721 102.798 333.019 102.798 333.408C102.798 333.797 103.113 334.111 103.501 334.111C103.889 334.111 104.204 333.797 104.204 333.408V328.809L106.156 330.319C106.319 330.445 106.522 330.514 106.728 330.514C107.021 330.514 107.292 330.381 107.47 330.149C107.472 330.146 107.475 330.142 107.478 330.139L108.57 328.663L108.577 328.655C108.649 328.564 108.84 328.324 108.796 327.973C108.763 327.725 108.636 327.505 108.44 327.354L93.544 315.828C93.2137 315.573 92.8189 315.438 92.4018 315.438C91.9847 315.438 91.5899 315.573 91.2592 315.828L87.1694 318.993V318.107C87.7223 318.013 88.1449 317.532 88.1449 316.953V315.547C88.1449 314.901 87.6191 314.375 86.9731 314.375H81.2752C80.6292 314.375 80.1033 314.901 80.1033 315.547V316.952C80.1033 317.532 80.5259 318.013 81.0789 318.107V323.705L76.365 327.353C76.1688 327.504 76.0388 327.731 76.008 327.975C75.9758 328.223 76.0417 328.468 76.194 328.666L77.334 330.149C77.5127 330.381 77.783 330.514 78.076 330.514C78.2818 330.514 78.4847 330.445 78.6487 330.319L80.5995 328.809V351.671C79.4833 352.22 78.6238 353.238 78.3045 354.48C77.2443 354.889 76.5159 355.919 76.5159 357.088C76.5159 357.217 76.5251 357.343 76.5419 357.468C76.3189 357.681 76.1797 357.981 76.1797 358.313V360.466C76.1797 361.112 76.7053 361.637 77.3516 361.637H121.439C121.828 361.637 122.142 361.323 122.142 360.934C122.142 360.546 121.828 360.231 121.439 360.231H119.401V346.669L121.353 348.179C121.516 348.305 121.719 348.374 121.925 348.374C122.218 348.374 122.489 348.241 122.667 348.009C122.67 348.005 122.672 348.002 122.675 347.999L123.767 346.523L123.775 346.514C123.846 346.424 124.038 346.184 123.993 345.833ZM91.3508 353.27C93.009 353.27 94.3581 354.619 94.3581 356.276C94.3581 356.577 94.3127 356.867 94.2303 357.141H90.2195C90.2499 356.962 90.2668 356.779 90.2668 356.591C90.2668 355.637 89.8584 354.777 89.2084 354.175C89.7643 353.611 90.5334 353.27 91.3508 353.27ZM81.5096 315.781H86.7387V316.718H81.5096V315.781ZM85.7631 318.124V320.081L82.4852 322.617V318.124H85.7631ZM78.1613 328.918L77.594 328.18L92.1194 316.941C92.2026 316.877 92.2974 316.844 92.4018 316.844C92.5061 316.844 92.601 316.877 92.6838 316.94L107.189 328.164L106.636 328.912L92.8321 318.232C92.5787 318.036 92.2249 318.036 91.9715 318.232L78.1613 328.918ZM96.1166 360.231H77.586V358.547H84.0628C84.451 358.547 84.7659 358.233 84.7659 357.844C84.7659 357.456 84.451 357.141 84.0628 357.141H77.924C77.9233 357.123 77.9222 357.106 77.9222 357.088C77.9222 356.424 78.3935 355.851 79.0435 355.725C79.3376 355.668 79.5632 355.431 79.6056 355.135C79.8107 353.71 81.0522 352.635 82.4932 352.635C83.69 352.635 84.7842 353.386 85.216 354.504C85.2863 354.686 85.4291 354.831 85.6108 354.904C85.7924 354.976 85.9957 354.97 86.1725 354.886C86.4252 354.767 86.6962 354.706 86.9771 354.706C88.0157 354.706 88.8605 355.552 88.8605 356.591C88.8605 356.783 88.8305 356.967 88.777 357.141H83.9444C83.5559 357.141 83.2413 357.456 83.2413 357.844C83.2413 358.233 83.5559 358.547 83.9444 358.547H96.1166V360.231ZM121.833 346.773L108.03 336.092C107.776 335.896 107.423 335.896 107.169 336.092L93.3587 346.778L92.7914 346.04L107.317 334.801C107.4 334.737 107.495 334.704 107.6 334.704C107.704 334.704 107.799 334.737 107.881 334.801L122.387 346.024L121.833 346.773Z" fill="white"/>
        </g>
    </g>
    <defs>
        <filter id="filter0_i_5395_2313" x="1303" y="0.419922" width="72" height="72" filterUnits="userSpaceOnUse" color-interpolation-filters="sRGB">
            <feFlood flood-opacity="0" result="BackgroundImageFix"/>
            <feBlend mode="normal" in="SourceGraphic" in2="BackgroundImageFix" result="shape"/>
            <feColorMatrix in="SourceAlpha" type="matrix" values="0 0 0 0 0 0 0 0 0 0 0 0 0 0 0 0 0 0 127 0" result="hardAlpha"/>
            <feOffset/>
            <feGaussianBlur stdDeviation="3.1"/>
            <feComposite in2="hardAlpha" operator="arithmetic" k2="-1" k3="1"/>
            <feColorMatrix type="matrix" values="0 0 0 0 0 0 0 0 0 0 0 0 0 0 0 0 0 0 1 0"/>
            <feBlend mode="normal" in2="shape" result="effect1_innerShadow_5395_2313"/>
        </filter>
        <filter id="filter1_i_5395_2313" x="64" y="302" width="72" height="72" filterUnits="userSpaceOnUse" color-interpolation-filters="sRGB">
            <feFlood flood-opacity="0" result="BackgroundImageFix"/>
            <feBlend mode="normal" in="SourceGraphic" in2="BackgroundImageFix" result="shape"/>
            <feColorMatrix in="SourceAlpha" type="matrix" values="0 0 0 0 0 0 0 0 0 0 0 0 0 0 0 0 0 0 127 0" result="hardAlpha"/>
            <feOffset/>
            <feGaussianBlur stdDeviation="3.1"/>
            <feComposite in2="hardAlpha" operator="arithmetic" k2="-1" k3="1"/>
            <feColorMatrix type="matrix" values="0 0 0 0 0 0 0 0 0 0 0 0 0 0 0 0 0 0 1 0"/>
            <feBlend mode="normal" in2="shape" result="effect1_innerShadow_5395_2313"/>
        </filter>
        <clipPath id="clip0_5395_2313">
            <rect width="48" height="48" fill="white" transform="translate(1315 12.4199)"/>
        </clipPath>
        <clipPath id="clip1_5395_2313">
            <rect width="48" height="48" fill="white" transform="translate(76 314)"/>
        </clipPath>
    </defs>
</svg>